<?xml version="1.0" standalone="no"?>
<!DOCTYPE svg PUBLIC "-//W3C//DTD SVG 1.1//EN" "http://www.w3.org/Graphics/SVG/1.1/DTD/svg11.dtd" >
<svg>
<metadata>
Created by FontForge 20090914 at Fri Dec  2 08:05:49 2016
 By www-data
Copyright (c) 2010-2012, Lautaro Hourcade (lautaro.uy@gmail.com), with Reserved Font Name 'Gafata'
</metadata>
<defs>
<font id="Gafata-Regular" horiz-adv-x="596" >
  <font-face 
    font-family="Gafata"
    font-weight="400"
    font-stretch="normal"
    units-per-em="1000"
    panose-1="2 0 5 3 0 0 0 2 0 4"
    ascent="800"
    descent="-200"
    x-height="492"
    cap-height="648"
    bbox="-64 -202 981.006 921"
    underline-thickness="50"
    underline-position="-50"
    unicode-range="U+0020-U+FB02"
  />
<missing-glyph horiz-adv-x="500" 
 />
    <glyph glyph-name="fi" unicode="fi" horiz-adv-x="484" 
d="M269 492l51.002 -0.000976562h86v-492h-62v444h-183c-5.33301 0 -8 -1.33301 -8 -4v-514l-35 -124l-3 -3h-46l22 127v512c0 3.33301 -4.33301 5 -13 5h-34l1 29c27.333 12.667 42.666 19.667 45.999 21v1l-1 78c0 34.667 7 63.834 21 87.501s31 40.5 51 50.5
c38 17.333 73.667 26 107 26h6l21 -1l-11 -49c-0.666992 -1.33301 -3.83398 -1.5 -9.50098 -0.5s-11 1.5 -16 1.5s-13.167 -1.83301 -24.5 -5.5s-23.333 -8.5 -36 -14.5s-23.5 -17.333 -32.5 -34s-13.5 -37 -13.5 -61v-72c0 -5.33301 38.667 -8 116 -8zM340.002 656.999h70
v-72h-70v72z" />
    <glyph glyph-name="fl" unicode="fl" horiz-adv-x="490" 
d="M342 122l1.00098 561.997c-12.667 2.66699 -24.167 4 -34.5 4s-23 -1 -38 -3s-31.167 -6.33301 -48.5 -13s-31.833 -18.667 -43.5 -36s-18.167 -38.666 -19.5 -63.999v-72c0 -3.33301 0.5 -5.5 1.5 -6.5s3.5 -1.5 7.5 -1.5h113l-8 -47h-109c-5.33301 0 -8 -1.33301 -8 -4
v-514l-39 -125l-3 -3h-46l22 127l1 513c0 2.66699 -3.5 4.16699 -10.5 4.5s-19.5 0.5 -37.5 0.5l1 28c5.33301 2.66699 13.5 6.16699 24.5 10.5s18.5 7.5 22.5 9.5v81c0.666992 40.667 11.667 73.834 33 99.501s47.666 42.334 78.999 50.001s64 11.5 98 11.5
s69.667 -5 107 -15v-597l25 -128h-49l-4 4z" />
    <glyph glyph-name=".notdef" horiz-adv-x="500" 
 />
    <glyph glyph-name="space" unicode=" " horiz-adv-x="228" 
 />
    <glyph glyph-name="exclam" unicode="!" horiz-adv-x="249" 
d="M147 146h-45l-10 234l-5 291h75l-5 -291zM160 1h-72v74h72v-74z" />
    <glyph glyph-name="quotedbl" unicode="&#x22;" horiz-adv-x="330" 
d="M91 667h60v-54c0 -29.333 -0.166992 -49.833 -0.5 -61.5s-4.5 -24.5 -12.5 -38.5s-14.667 -23.333 -20 -28l-45 -38l-26 23c19.333 25.333 33 47 41 65l3 77v55zM213 667h61l-1 -54c0 -49.333 -3 -81 -9 -95s-24.667 -34.333 -56 -61
c-5.33301 -4 -9.33301 -7.33301 -12 -10l-27 23c19.333 25.333 33.333 47 42 65l2 77v55z" />
    <glyph glyph-name="numbersign" unicode="#" horiz-adv-x="633" 
d="M332 -71l35 189h-150l-37 -202l-61 13l35 189h-109l-1 58h121l31 163h-107l-1 58h119l34 181l60 -13l-31 -168h150l34 181l60 -13l-31 -168h104l1 -58h-116l-31 -163h102l1 -58h-114l-37 -202zM259 339l-31 -163h150l31 163h-150z" />
    <glyph glyph-name="dollar" unicode="$" horiz-adv-x="497" 
d="M229 -97l0.00292969 90h-3c-57.333 0 -116 9.66699 -176 29l16 53c52 -19.333 105 -29 159 -29s92.833 8 116.5 24s35.5 46 35.5 90c0 29.333 -11 52 -33 68c-28.667 21.333 -56.334 36.333 -83.001 45l-86 39.5c-17.333 8.33301 -36.833 20 -58.5 35
s-36.5 30.333 -44.5 46s-12.333 34.167 -13 55.5c0 47.333 15.833 85.166 47.5 113.499s72.5 44.5 122.5 48.5v103h54v-104c43.333 -3.33301 88.666 -12.666 135.999 -27.999l-13 -48c-62.667 16 -108 24 -136 24c-53.333 0 -90.5 -7.33301 -111.5 -22s-31.5 -41 -31.5 -79
c0 -28.667 14.667 -52.334 44 -71.001c20.667 -13.333 57.167 -31 109.5 -53s88.166 -39.667 107.499 -53c42 -29.333 63.333 -68.666 64 -117.999c0 -98 -56.333 -153.333 -169 -166v-93h-54z" />
    <glyph glyph-name="percent" unicode="%" horiz-adv-x="706" 
d="M196 -9h-65l374 705h64zM173 647c-32.667 0 -53.332 -6.33203 -61.999 -18.999s-13 -41 -13 -85s4.83301 -74.5 14.5 -91.5s30.667 -25.5 63 -25.5s52.666 6.66699 60.999 20s12.5 41.666 12.5 84.999s-4.5 73.5 -13.5 90.5s-29.833 25.5 -62.5 25.5zM173.002 696.001
c53.333 0 88 -11.332 104 -33.999s24 -61.5 24 -116.5s-11 -96.833 -33 -125.5s-56 -43 -102 -43s-77.5 11.667 -94.5 35s-25.5 62.166 -25.5 116.499s11.333 95.833 34 124.5s53.667 43 93 43zM533.002 259.002c-32.667 0 -53.332 -6.33203 -61.999 -18.999
s-13 -41 -13 -85s4.83301 -74.5 14.5 -91.5s30.667 -25.5 63 -25.5s52.666 6.66699 60.999 20s12.5 41.666 12.5 84.999s-4.5 73.5 -13.5 90.5s-29.833 25.5 -62.5 25.5zM533.004 308.003c53.333 0 88 -11.332 104 -33.999s24 -61.5 24 -116.5s-11 -96.833 -33 -125.5
s-56 -43 -102 -43s-77.5 11.667 -94.5 35s-25.5 62.166 -25.5 116.499s11.333 95.833 34 124.5s53.667 43 93 43z" />
    <glyph glyph-name="ampersand" unicode="&#x26;" horiz-adv-x="600" 
d="M557 355l2.99902 -41l-1 -12h-96c11.333 -46.667 17 -88.5 17 -125.5s-7 -67.667 -21 -92s-32 -43.166 -54 -56.499c-42 -24.667 -85.333 -37 -130 -37c-60.667 0 -111.5 15.167 -152.5 45.5s-61.5 74.5 -61.5 132.5c0 78 30.333 132.333 91 163
c-47.333 36.667 -71 84.834 -71 144.501s18.5 105 55.5 136s73.833 46.5 110.5 46.5s67.667 -5 93 -15l-23 -53c-17.333 8.66699 -39.666 13 -66.999 13c-42 0 -69.333 -9.83301 -82 -29.5s-19 -50.334 -19 -92.001s11.167 -72.334 33.5 -92.001s54.5 -32.5 96.5 -38.5
l-15 -50c-31.333 0 -52.333 1.66699 -63 5c-8.66699 -3.33301 -17.5 -8.33301 -26.5 -15s-18.667 -21 -29 -43s-15.5 -48.5 -15.5 -79.5s12.667 -59.333 38 -85s61 -38.5 107 -38.5c91.333 0 137 40.667 137 122c0 70.667 -4.33301 128.667 -13 174
c0 4.66699 39.667 8.66699 119 12z" />
    <glyph glyph-name="quotesingle" unicode="'" horiz-adv-x="208" 
d="M91 667h60v-54c0 -29.333 -0.166992 -49.833 -0.5 -61.5s-4.5 -24.5 -12.5 -38.5s-14.667 -23.333 -20 -28l-45 -38l-26 23c19.333 25.333 33 47 41 65l3 77v55z" />
    <glyph glyph-name="parenleft" unicode="(" horiz-adv-x="255" 
d="M88 11c-20 66.667 -30 156.167 -30 268.5s10 200.833 30 265.5s54.333 118.667 103 162l26 -23c-18 -22.667 -29.5 -39.5 -34.5 -50.5s-10.5 -25.667 -16.5 -44s-10 -31 -12 -38s-5.5 -21.333 -10.5 -43s-8.5 -41.834 -10.5 -60.501c-6 -56 -9 -116 -9 -180
c0 -136 17.333 -247.667 52 -335c9.33301 -19.333 23 -41.333 41 -66l-26 -23c-48.667 44.667 -83 100.334 -103 167.001z" />
    <glyph glyph-name="parenright" unicode=")" horiz-adv-x="255" 
d="M101 552c-10.667 36 -19.333 61.334 -26 76.001s-19 33.334 -37 56.001l26 23c48.667 -43.333 83 -97.333 103 -162s30 -153.167 30 -265.5s-10 -201.833 -30 -268.5s-54.333 -122.334 -103 -167.001l-26 23c18 24.667 31.667 46.667 41 66
c34.667 87.333 52 194.666 52 321.999s-10 226.333 -30 297z" />
    <glyph glyph-name="asterisk" unicode="*" horiz-adv-x="406" 
d="M183 552l-6 117h53l-6 -117l109 41l17 -50l-113 -31l73 -91l-43 -31l-64 98l-64 -98l-42 31l73 92l-113 30l16 50z" />
    <glyph glyph-name="plus" unicode="+" horiz-adv-x="489" 
d="M214 509h59v-166h162v-59h-162v-160h-59v160h-160v59h160v166z" />
    <glyph glyph-name="comma" unicode="," horiz-adv-x="215" 
d="M145 92l1 -91l-53 -127h-49l25 127l1 91h75z" />
    <glyph glyph-name="hyphen" unicode="-" horiz-adv-x="525" 
d="M72 284v59h381v-59h-381z" />
    <glyph glyph-name="period" unicode="." horiz-adv-x="223" 
d="M154 90v-90h-85v90h85z" />
    <glyph glyph-name="slash" unicode="/" horiz-adv-x="425" 
d="M23 6l327 735l53 -23l-326 -735z" />
    <glyph glyph-name="zero" unicode="0" horiz-adv-x="549" 
d="M275 661c36.667 0 68.167 -5.82617 94.5 -17.4932s46.833 -26.334 61.5 -44.001s26 -41.834 34 -72.501c12.667 -48.667 19 -104.334 19 -167.001s-3.16699 -112.334 -9.5 -149.001s-16.666 -72.334 -30.999 -107.001s-36 -62.167 -65 -82.5s-63.5 -30.5 -103.5 -30.5
c-50.667 0 -89.334 8.33301 -116.001 25c-14 9.33301 -26.167 19.166 -36.5 29.499s-18.833 24 -25.5 41s-12.167 33.167 -16.5 48.5s-7.5 34.666 -9.5 57.999c-3.33301 38.667 -5 83.667 -5 135c0 222 69.667 333 209 333zM413 329.007l1 74c0 62 -6 105.333 -18 130
c-22.667 44 -69.334 66 -140.001 66c-48.667 0 -81 -21 -97 -63c-14.667 -38.667 -22 -85 -22 -139v-69v-82c0 -41.333 1.83301 -68.666 5.5 -81.999s7.83398 -26.833 12.501 -40.5s10.834 -24 18.501 -31s16.5 -13.833 26.5 -20.5c19.333 -13.333 49 -20 89 -20
c31.333 0 57.666 11.333 78.999 34c14.667 15.333 26.667 43.666 36 84.999c6 28 9 80.667 9 158z" />
    <glyph glyph-name="one" unicode="1" horiz-adv-x="355" 
d="M191 0v586l-133 -80l-27 45l160 97h68l-1 -648h-67z" />
    <glyph glyph-name="two" unicode="2" horiz-adv-x="476" 
d="M424 56l0.00292969 -56h-371v23c0 100.667 50.333 191.334 151 272.001c55.333 44.667 90.333 77.167 105 97.5s22 50 22 89s-9.16699 66.167 -27.5 81.5s-47.833 23 -88.5 23s-85.667 -10.333 -135 -31l-17 57c56.667 24 111.5 36 164.5 36s95.333 -15.167 127 -45.5
s47.5 -69.833 47.5 -118.5c0 -28.667 -6 -57.334 -18 -86.001c-4 -10 -12.833 -22.833 -26.5 -38.5s-24.334 -27 -32.001 -34l-34.5 -32l-48.5 -44.5l-32.5 -29.5c-4.66699 -4.33301 -12.834 -12.333 -24.501 -24s-19 -20 -22 -25s-8 -12.667 -15 -23
s-11.5 -19.5 -13.5 -27.5c-6.66699 -26 -10.334 -47.333 -11.001 -64h300z" />
    <glyph glyph-name="three" unicode="3" horiz-adv-x="473" 
d="M186 316h-27.002v48h27c4.66699 0.666992 12.167 1.33398 22.5 2.00098s17.666 1.16699 21.999 1.5s10.333 1 18 2s13.334 2.33301 17.001 4s7.83398 3.83398 12.501 6.50098c26.667 12 40 48 40 108c0 43.333 -10.5 73.666 -31.5 90.999s-49.333 26 -85 26
s-74.167 -8.33301 -115.5 -25l-19 49c48.667 21.333 98.834 32 150.501 32s92.5 -14.333 122.5 -43c30.667 -29.333 46 -73 46 -131c0 -30.667 -5.5 -59.334 -16.5 -86.001s-26.833 -44.334 -47.5 -53.001c60.667 -23.333 91 -78.333 91 -165
c0 -60 -18.667 -107.667 -56 -143s-86.5 -53 -147.5 -53s-116.5 15.333 -166.5 46l26 51c44.667 -26 93.167 -39 145.5 -39s88.5 13.333 108.5 40c14 18.667 21 47.667 21 87s-7 71.833 -21 97.5s-33.667 39.834 -59 42.501s-51.333 4 -78 4z" />
    <glyph glyph-name="four" unicode="4" horiz-adv-x="465" 
d="M356 384v-147h68v-56h-68v-181h-68v181h-242v71c0 36 9.66699 70 29 102l199 305l50 -32l-181 -280c-14 -21.333 -22.333 -36.5 -25 -45.5s-4 -23.833 -4 -44.5v-20l174 1v146h68z" />
    <glyph glyph-name="five" unicode="5" horiz-adv-x="483" 
d="M379 53c-34 -40 -81.834 -60.001 -143.501 -60.001s-123.5 18 -185.5 54l23 57c56 -32.667 108.333 -49 157 -49s82.334 10.833 101.001 32.5s28 60.334 28 116.001s-10.333 93.167 -31 112.5s-52.667 29 -96 29h-144v303h305v-57h-237l-3 -182h91
c124 0 186 -65 186 -195c0 -67.333 -17 -121 -51 -161z" />
    <glyph glyph-name="six" unicode="6" horiz-adv-x="509" 
d="M294 380c50 0 89.0039 -14.1689 117.004 -42.502s42 -78.5 42 -150.5c0 -68 -27.333 -122 -82 -162c-30 -22 -66 -33 -108 -33c-76.667 0 -128.834 24 -156.501 72s-41.5 129 -41.5 243s17 201.167 51 261.5s85.333 90.5 154 90.5c54 0 109.667 -17.333 167 -52l-32 -50
c-45.333 26.667 -89 40 -131 40c-54 0 -90.333 -18.833 -109 -56.5s-28.334 -106.167 -29.001 -205.5c2 0.666992 8.66699 3.83398 20 9.50098s19.166 9.33398 23.499 11.001l23 8.5c11 4 20.167 6.66699 27.5 8c23.333 5.33301 44.666 8 63.999 8zM213.504 311.498
c-16.333 -5.66699 -33.167 -12.5 -50.5 -20.5s-26.333 -12 -27 -12c0 -94.667 12.333 -156.667 37 -186c22.667 -27.333 58 -41 106 -41c70.667 0 106 44 106 132c0 54.667 -8.5 91 -25.5 109s-41.5 27 -73.5 27s-56.167 -2.83301 -72.5 -8.5z" />
    <glyph glyph-name="seven" unicode="7" horiz-adv-x="453" 
d="M118 604v-85h-71v141h362l15 -47l-56 -115c-55.333 -112 -95.333 -201 -120 -267s-44 -146 -58 -240h-72c12.667 104 45 214 97 330l135 283h-232z" />
    <glyph glyph-name="eight" unicode="8" horiz-adv-x="514" 
d="M115 36c-36 30 -54 74.332 -54 132.999c0 38.667 8.83301 71.834 26.5 99.501s40.5 48.834 68.5 63.501c-50 34 -75 84.333 -75 151c0 38 10.5 71 31.5 99s44.333 47.833 70 59.5s50.167 17.5 73.5 17.5c118 0 177 -59.333 177 -178c0 -32.667 -7.16699 -62 -21.5 -88
s-32.5 -47 -54.5 -63c64 -32.667 96 -86.334 96 -161.001c0 -39.333 -11.667 -73 -35 -101c-42 -51.333 -94 -77 -156 -77s-111 15 -147 45zM159 82.999c20.667 -24.667 53.5 -36.999 98.5 -36.999s77.5 10.333 97.5 31s30 51 30 91c0 48 -15.333 80.667 -46 98
c-22 12.667 -47.167 21.667 -75.5 27s-46.833 9.66602 -55.5 12.999c-2 -0.666992 -4.83301 -1.5 -8.5 -2.5s-10.167 -4.66699 -19.5 -11s-17.5 -14 -24.5 -23s-13.333 -22.5 -19 -40.5s-8.5 -40.667 -8.5 -68s10.333 -53.333 31 -78zM170.5 573.5
c-14.333 -20.333 -21.501 -50.834 -21.501 -91.501c0 -79.333 51.667 -123.666 155 -132.999c1.33301 0 5 1.66699 11 5s11.167 6.83301 15.5 10.5s8.5 8.66699 12.5 15s7.66699 13.833 11 22.5c8 19.333 12 41.5 12 66.5s-1.16699 43.5 -3.5 55.5s-6.83301 24.667 -13.5 38
c-14 28 -43.667 42 -89 42s-75.166 -10.167 -89.499 -30.5z" />
    <glyph glyph-name="nine" unicode="9" horiz-adv-x="518" 
d="M381 303c-67.333 -20 -123.998 -30.002 -169.998 -30.002s-82.833 14.5 -110.5 43.5s-41.5 78.833 -41.5 149.5c0 46 17.167 89.667 51.5 131s82.166 62 143.499 62c66.667 0 115.334 -17 146.001 -51c26.667 -28.667 42.667 -81.334 48 -158.001
c2.66699 -31.333 4 -71.666 4 -120.999c0 -112.667 -18.167 -197 -54.5 -253s-86.5 -84 -150.5 -84c-32 0 -60.5 4.33301 -85.5 13s-56.833 24.334 -95.5 47.001l22 54c62.667 -36.667 117.167 -55 163.5 -55s79.166 18.333 98.499 55s29.666 102.334 30.999 197.001z
M148.002 358.498c16.667 -17 42.667 -25.501 78 -25.501s87 8.66699 155 26c1.33301 18.667 2 35.834 2 51.501s-0.666992 34 -2 55s-5.33301 42.5 -12 64.5c-14 46 -57.667 69 -131 69c-76.667 0 -115 -44.333 -115 -133c0 -54.667 8.33301 -90.5 25 -107.5z" />
    <glyph glyph-name="colon" unicode=":" horiz-adv-x="229" 
d="M157 93v-91h-85l1 91h84zM157 408v-91h-85l1 91h84z" />
    <glyph glyph-name="semicolon" unicode=";" horiz-adv-x="249" 
d="M169 93l1 -91l-53 -127h-49l25 127l1 91h75zM165 408v-91h-85l1 91h84z" />
    <glyph glyph-name="less" unicode="&#x3c;" horiz-adv-x="449" 
d="M379 144v-63l-329 169v60l329 168v-63l-244 -123c-8.66699 -4 -13 -7.83301 -13 -11.5s2.5 -6.66699 7.5 -9s88.167 -44.833 249.5 -127.5z" />
    <glyph glyph-name="equal" unicode="=" horiz-adv-x="483" 
d="M76 184v59h331v-59h-331zM76 384v59h331v-59h-331z" />
    <glyph glyph-name="greater" unicode="&#x3e;" horiz-adv-x="449" 
d="M327 283c0 0.666992 -0.333984 1.66699 -1.00098 3c-2 1.33301 -4.16699 2.5 -6.5 3.5s-4.16602 1.83301 -5.49902 2.5l-244 123v63l329 -168v-60l-329 -169v63l244 125c8 5.33301 12.333 9 13 11v3z" />
    <glyph glyph-name="question" unicode="?" horiz-adv-x="406" 
d="M37 655c45.333 4.66699 83.166 7.00293 113.499 7.00293s52.833 -1.5 67.5 -4.5s30.334 -7.33301 47.001 -13s30.167 -13.5 40.5 -23.5s19.833 -22.333 28.5 -37c17.333 -26.667 26 -67.334 26 -122.001c0 -48 -10.667 -84 -32 -108c-12 -13.333 -21.833 -23 -29.5 -29
s-17.167 -12.5 -28.5 -19.5l-32 -19.5c-10 -6 -16.667 -10.167 -20 -12.5l-14.5 -10.5c-6.33301 -4.66699 -10.666 -8.83398 -12.999 -12.501s-5.16602 -8.5 -8.49902 -14.5c-4 -8 -6 -22.333 -6 -43l-2 -64h-56c-1.33301 21.333 -2 46.833 -2 76.5s6.16699 53.5 18.5 71.5
s27.166 32.333 44.499 43l52 32c42 26 63 62 63 108c0 41.333 -7 71.666 -21 90.999c-7.33301 10 -14.833 18.833 -22.5 26.5s-17.834 13.167 -30.501 16.5c-28 8.66699 -56.167 13 -84.5 13s-56.5 -2 -84.5 -6c-6 29.333 -10.667 47.333 -14 54zM181 -18.9971h-72v74h72
v-74z" />
    <glyph glyph-name="at" unicode="@" horiz-adv-x="774" 
d="M489 250l-11.001 1c-35.333 2 -68.666 3 -99.999 3s-53.333 -4.83301 -66 -14.5s-19 -27.667 -19 -54s4.33301 -44 13 -53s24 -13.5 46 -13.5s48.167 4.83301 78.5 14.5s49.833 20.5 58.5 32.5v84zM488.999 298l1.00098 55.001c0 34.667 -7.66699 58.834 -23 72.501
s-41.833 20.5 -79.5 20.5s-81.334 -8.66699 -131.001 -26s-84.834 -42.5 -105.501 -75.5s-31 -78.833 -31 -137.5s3.16699 -102 9.5 -130s21.333 -52.5 45 -73.5s50.334 -36 80.001 -45s66.5 -13.5 110.5 -13.5s79.667 1.16699 107 3.5s53.166 7.5 77.499 15.5
s43.5 18.667 57.5 32s26.333 31.333 37 54c18 41.333 27 107.666 27 198.999l56 -3c0 -112 -17.333 -195.333 -52 -250c-30 -48 -85 -79 -165 -93c-34 -6 -76.333 -9.66699 -127 -11c-216.667 0 -325 88 -325 264c0 103.333 15 175.666 45 216.999s77 72.833 141 94.5
s120.167 32.5 168.5 32.5s85.833 -15 112.5 -45c14.667 -16 22.334 -41.667 23.001 -77c0.666992 -10.667 1 -29.667 1 -57v-23c0 -63.333 0.333008 -103.333 1 -120c2 -12.667 5.33301 -31.5 10 -56.5s8 -43.833 10 -56.5h-41l-7 7l-17 51
c-58 -38 -110.333 -57.667 -157 -59c-36 0 -64 9.83301 -84 29.5s-30 47.167 -30 82.5c0 49.333 13.667 82.833 41 100.5s65.333 26.5 114 26.5c18.667 0 46 -1.33301 82 -4z" />
    <glyph glyph-name="A" unicode="A" 
d="M253 648h90l219 -648h-71l-67 201h-252l-67 -201h-71zM190 257h217l-106 336h-3z" />
    <glyph glyph-name="B" unicode="B" horiz-adv-x="549" 
d="M260 -1l-103 1h-66v648h157c28 0 51.167 -0.833008 69.5 -2.5s37.333 -6 57 -13s35.167 -16.833 46.5 -29.5c26 -29.333 39 -75.833 39 -139.5s-17.667 -107.167 -53 -130.5c13.333 -5.33301 23.666 -10.5 30.999 -15.5s16 -12.833 26 -23.5
c18 -21.333 27 -63.5 27 -126.5s-18.167 -106.833 -54.5 -131.5s-95.166 -37 -176.499 -37zM157 60l138 -1c47.333 0 80.333 6.66699 99 20s28 45.333 28 96c0 84.667 -33.333 127 -100 127h-165v-242zM237 587l-80.001 -0.000976562v-229h186c32.667 0 49 36 49 108
c0 40.667 -3.66699 67 -11 79s-14.166 20.333 -20.499 25s-16.5 8.33398 -30.5 11.001c-20 4 -51 6 -93 6z" />
    <glyph glyph-name="C" unicode="C" horiz-adv-x="554" 
d="M281 653.5c24 4.33301 55.0039 6.50098 93.0039 6.50098s84.667 -9 140 -27l-16 -53c-60 12 -104.5 18 -133.5 18s-53.833 -1.5 -74.5 -4.5s-41.834 -9.83301 -63.501 -20.5s-38.834 -25.667 -51.501 -45c-28.667 -44 -43 -111.333 -43 -202c0 -111.333 20 -186 60 -224
c19.333 -18 39.333 -30.5 60 -37.5s43.5 -10.5 68.5 -10.5s43.5 0.666992 55.5 2c38.667 2.66699 77 15.334 115 38.001l23 -54c-48 -32.667 -110.667 -49 -188 -49c-30 0 -56 1.83301 -78 5.5s-45.333 12 -70 25s-44.834 31.167 -60.501 54.5s-28.834 56 -39.501 98
s-16 91.5 -16 148.5s6.66699 106.5 20 148.5s29.833 74.667 49.5 98s43.5 42.166 71.5 56.499s54 23.666 78 27.999z" />
    <glyph glyph-name="D" unicode="D" horiz-adv-x="622" 
d="M91 648l171.001 0.00195312c40.667 0 74.667 -2 102 -6s54.333 -12.5 81 -25.5s47.667 -30.833 63 -53.5c34 -50 51 -128 51 -234c0 -65.333 -8.66699 -123.333 -26 -174c-12 -34.667 -35 -67.334 -69 -98.001c-18.667 -17.333 -49.334 -32.333 -92.001 -45
c-24 -6.66699 -49.5 -10.334 -76.5 -11.001s-50.833 -1 -71.5 -1h-133v648zM157.001 58.002l67.001 0.00195312h26c14 0 26.5 0.166992 37.5 0.5s25.5 1.16602 43.5 2.49902s31.167 3.66602 39.5 6.99902s19.166 8 32.499 14s23 13.5 29 22.5l21.5 33.5
c8.33301 13.333 14.5 29 18.5 47c9.33301 48.667 14.333 99 15 151s-2.5 94.833 -9.5 128.5s-20.167 59.667 -39.5 78s-42 30.333 -68 36s-61.667 8.5 -107 8.5h-106v-529z" />
    <glyph glyph-name="E" unicode="E" horiz-adv-x="507" 
d="M459 0h-368v648h357l-7 -56h-283v-229h250v-56h-251v-251h302v-56z" />
    <glyph glyph-name="F" unicode="F" horiz-adv-x="452" 
d="M158 592v-232h224v-56h-225v-304h-66v648h325l-7 -56h-251z" />
    <glyph glyph-name="G" unicode="G" horiz-adv-x="603" 
d="M361 332l172.999 0.000976562l-1 -281c-56 -40 -118.667 -60 -188 -60c-36 0 -67 2.16699 -93 6.5s-51.667 13.333 -77 27s-45.666 32.5 -60.999 56.5c-34.667 52.667 -52 133.667 -52 243c0 224 99 336 297 336c26 0 56.833 -3.16699 92.5 -9.5
s64.167 -13.833 85.5 -22.5l-18 -52c-47.333 14.667 -100.666 22 -159.999 22c-86 0 -145.333 -20.333 -178 -61s-49 -111.334 -49 -212.001c0 -115.333 21.333 -191 64 -227c21.333 -18 43.166 -30 65.499 -36s49.833 -9 82.5 -9c54 0 96.333 10.333 127 31v200h-110v48z
" />
    <glyph glyph-name="H" unicode="H" horiz-adv-x="624" 
d="M467 648h66v-648h-66v308h-310v-308h-66v648h66v-284h310v284z" />
    <glyph glyph-name="I" unicode="I" horiz-adv-x="248" 
d="M91 648h66v-648h-66v648z" />
    <glyph glyph-name="J" unicode="J" horiz-adv-x="263" 
d="M107 648h66v-570c-0.666992 -68 -18 -120.333 -52 -157s-79.667 -55.667 -137 -57l-13 38c88.667 18 134 76.667 136 176v570z" />
    <glyph glyph-name="K" unicode="K" horiz-adv-x="566" 
d="M157 0h-66v648h67v-332l71 83l141 166l71 83h73l-260 -307l299 -341h-83l-256 294l-57 -67v-227z" />
    <glyph glyph-name="L" unicode="L" horiz-adv-x="467" 
d="M92 1h-1v647h66l-1 -592h288v-56h-352v1z" />
    <glyph glyph-name="M" unicode="M" horiz-adv-x="762" 
d="M181 648l200 -403l199 403h80l20 -648h-67l-6 488l-1 72l-193 -380h-65l-193 380l-7 -560h-67l22 648h78z" />
    <glyph glyph-name="N" unicode="N" horiz-adv-x="659" 
d="M502 648h66v-648h-73l-342 547l4 -94v-453h-66v648h72l342 -545l-3 96v449z" />
    <glyph glyph-name="O" unicode="O" horiz-adv-x="661" 
d="M331 661c100.667 0 170.5 -23.334 209.5 -70.001s58.5 -134 58.5 -262c0 -64.667 -7.66699 -120 -23 -166s-36.666 -81 -63.999 -105c-50 -44.667 -110.333 -67 -181 -67c-96.667 0 -161.667 17.667 -195 53c-34 36.667 -56 87.334 -66 152.001
c-5.33301 37.333 -8 83.833 -8 139.5s8.33301 106.167 25 151.5s38.667 80 66 104c53.333 46.667 112.666 70 177.999 70zM312 598.999c-60.667 0 -105.833 -21.165 -135.5 -63.498s-44.5 -111.5 -44.5 -207.5c0 -90.667 11.333 -158 34 -202
c18.667 -36.667 52.667 -59.334 102 -68.001c20 -4 45.667 -6 77 -6c62.667 0 109 21.667 139 65s45 114 45 212c0 76 -7.33301 133.667 -22 173c-8.66699 23.333 -21 41.666 -37 54.999c-33.333 28 -86 42 -158 42z" />
    <glyph glyph-name="P" unicode="P" horiz-adv-x="553" 
d="M264 253l-59.999 1h-46v-254h-67v648h190c35.333 0 65.166 -2.16699 89.499 -6.5s47.833 -12.833 70.5 -25.5c45.333 -26.667 68 -81 68 -163c0 -68.667 -16.333 -119 -49 -151c-14 -13.333 -32.667 -23.833 -56 -31.5s-45 -12.5 -65 -14.5s-45 -3 -75 -3zM224.001 311
l76 -1.00098c54 0 90.667 8.5 110 25.5s29 54.833 29 113.5s-12.167 96.334 -36.5 113.001s-68.833 25 -133.5 25h-111v-276h66z" />
    <glyph glyph-name="Q" unicode="Q" horiz-adv-x="660" 
d="M328 661c100.667 0 170.833 -23.499 210.5 -70.499s59.5 -134.167 59.5 -261.5c0 -136 -34.667 -231 -104 -285c-38 -30 -83.333 -47 -136 -51v-27v-6c0 -36 5.5 -59.167 16.5 -69.5s41.5 -21.833 91.5 -34.5l29 -8c0 -21.333 1 -36.333 3 -45
c-76 10.667 -129.5 27.167 -160.5 49.5s-46.833 60.5 -47.5 114.5v26c-30 1.33301 -55.667 4.66602 -77 9.99902s-42.166 15 -62.499 29s-36.5 33 -48.5 57c-26.667 53.333 -40 133 -40 239c0 60.667 8.16699 113.667 24.5 159s38.166 80 65.499 104
c52 46.667 110.667 70 176 70zM308.999 599.001c-60 0 -104.333 -20.999 -133 -62.999s-43 -111.333 -43 -208c0 -90.667 10.667 -158 32 -202c18.667 -37.333 51.667 -60 99 -68c20.667 -4 46.667 -6 78 -6c62.667 0 109.167 21.833 139.5 65.5s45.5 114.167 45.5 211.5
c0 49.333 -2.66699 89.333 -8 120s-15.5 58.167 -30.5 82.5s-37 41.666 -66 51.999s-66.833 15.5 -113.5 15.5z" />
    <glyph glyph-name="R" unicode="R" horiz-adv-x="580" 
d="M264 253l-59.999 0.999023h-46v-254h-67v648h190c35.333 0 65.166 -2.16699 89.499 -6.5s47.833 -12.833 70.5 -25.5c45.333 -26.667 68 -81 68 -163c0 -61.333 -12.167 -106.666 -36.5 -135.999s-58.833 -48.333 -103.5 -57l168 -242l-52 -35l-190 270h-31z
M224.001 310.999l76 -1.00098c54 0 90.667 8.5 110 25.5s29 54.833 29 113.5s-12.167 96.334 -36.5 113.001s-68.833 25 -133.5 25h-111v-276h66z" />
    <glyph glyph-name="S" unicode="S" horiz-adv-x="514" 
d="M65 75c51.333 -19.333 106.668 -29.002 166.001 -29.002s101.333 8.83301 126 26.5s37 50.5 37 98.5c0 25.333 -8 46.333 -24 63c-15.333 14.667 -29.333 25.334 -42 32.001l-36 18l-41.5 19l-42.5 19.5c-12 5.66699 -28.333 14 -49 25s-35.334 20.333 -44.001 28
s-18.334 17.167 -29.001 28.5c-18.667 20.667 -28 47.334 -28 80.001c0 55.333 19 98.5 57 129.5s87 46.5 147 46.5s115.667 -8.33301 167 -25l-13 -50c-41.333 13.333 -88.833 20 -142.5 20s-91.5 -8.5 -113.5 -25.5s-33 -46.167 -33 -87.5c0 -30.667 15.667 -56 47 -76
c25.333 -16 64.333 -35.5 117 -58.5s88.334 -40.833 107.001 -53.5c47.333 -32 71.333 -75.333 72 -130c0 -122 -79 -183 -237 -183c-66 0 -127.667 9.66699 -185 29z" />
    <glyph glyph-name="T" unicode="T" horiz-adv-x="477" 
d="M24 592v56h429v-56h-182v-592h-66v592h-181z" />
    <glyph glyph-name="U" unicode="U" horiz-adv-x="612" 
d="M310 -10l-14.001 0.000976562c-8 0 -16 0.166992 -24 0.5s-20.333 1.66602 -37 3.99902s-30.667 6 -42 11s-24.166 12.833 -38.499 23.5s-25.833 23.334 -34.5 38.001c-22 35.333 -33 81 -33 137v444h67v-444c2 -104.667 54 -157 156 -157c43.333 0 79.333 12.667 108 38
s43 63.666 43 114.999v448h65l-1 -446c0 -141.333 -71.667 -212 -215 -212z" />
    <glyph glyph-name="V" unicode="V" horiz-adv-x="578" 
d="M248 0l-213 648h75l179 -567l182 567h72l-212 -648h-83z" />
    <glyph glyph-name="W" unicode="W" horiz-adv-x="799" 
d="M364 493h70l185 -422l5 89l42 488h69l-70 -648h-81l-184 417l-180 -417h-86l-69 648h69l44 -487l5 -91z" />
    <glyph glyph-name="X" unicode="X" horiz-adv-x="572" 
d="M41 648h75l170 -267l169 267h76l-200 -310l219 -338h-72l-192 296l-192 -296h-72l219 338z" />
    <glyph glyph-name="Y" unicode="Y" horiz-adv-x="538" 
d="M236 0v265l-206 383h74l165 -324l168 324h71l-205 -383l-1 -265h-66z" />
    <glyph glyph-name="Z" unicode="Z" horiz-adv-x="522" 
d="M47 592v56h429v-56l-358 -536l358 2l-19 -58h-410v56l356 536h-356z" />
    <glyph glyph-name="bracketleft" unicode="[" horiz-adv-x="251" 
d="M85 541l0.999023 53.0029c0 6.66699 1 12.834 3 18.501s3.16699 10.667 3.5 15s2.5 9 6.5 14s6.5 8.66699 7.5 11s4.66699 6.33301 11 12l13 11.5l17.5 14.5l20 16.5l26 -23c-18 -22.667 -31.667 -44.334 -41 -65.001l-3 -76c1.33301 -90.667 2 -181.334 2 -272.001
s-0.666992 -181.334 -2 -272.001l3 -76c9.33301 -19.333 23 -41.333 41 -66l-26 -23l-20.5 17c-9 7.33301 -14.667 12.166 -17 14.499s-6.66602 6.33301 -12.999 12s-10 9.66699 -11 12s-3.5 6 -7.5 11s-6.16699 9.5 -6.5 13.5s-1.5 9 -3.5 15s-3 12.333 -3 19l-1 52l-1 409
c0 76 0.333008 120 1 132z" />
    <glyph glyph-name="backslash" unicode="\" horiz-adv-x="378" 
d="M77 751l277 -782l-55 -19l-276 782z" />
    <glyph glyph-name="bracketright" unicode="]" horiz-adv-x="251" 
d="M167 0l-1.00098 -52.0029c0 -6.66699 -1 -13 -3 -19s-3.16699 -11 -3.5 -15s-2.5 -8.5 -6.5 -13.5s-6.5 -8.66699 -7.5 -11s-4.66699 -6.33301 -11 -12s-10.666 -9.66699 -12.999 -12s-8 -7.16602 -17 -14.499l-20.5 -17l-26 23c18 24.667 31.667 46.667 41 66l3 76
c-1.33301 90.667 -2 181.334 -2 272.001s0.666992 181.334 2 272.001l-3 76c-9.33301 20.667 -23 42.334 -41 65.001l26 23l20 -16.5l17.5 -14.5l13 -11.5c6.33301 -5.66699 10 -9.66699 11 -12s3.5 -6 7.5 -11s6.16699 -9.66699 6.5 -14s1.5 -9.33301 3.5 -15
s3 -11.834 3 -18.501l1 -53v-541z" />
    <glyph glyph-name="asciicircum" unicode="^" horiz-adv-x="493" 
d="M243 572c-0.666992 0 -1.66602 -0.668945 -2.99902 -2.00195s-2.5 -3.16602 -3.5 -5.49902s-1.83301 -4.16602 -2.5 -5.49902l-123 -254h-63l168 339h60l169 -339h-63c-74.667 147.333 -116.334 232 -125.001 254c-5.33301 8 -9 12.333 -11 13h-3z" />
    <glyph glyph-name="underscore" unicode="_" horiz-adv-x="567" 
d="M69 0v59h429v-59h-429z" />
    <glyph glyph-name="grave" unicode="`" horiz-adv-x="352" 
d="M88 671l48.001 45c25.333 -28 46.333 -48.333 63 -61c23.333 -18 43.666 -32.667 60.999 -44l20 -14c-3.33301 -4.66699 -8 -9.66699 -14 -15s-10.667 -10 -14 -14l-68 28c-36 24.667 -68 49.667 -96 75z" />
    <glyph glyph-name="a" unicode="a" horiz-adv-x="486" 
d="M408 299l-1.00098 -119c0 -18.667 0.333008 -36 1 -52l22 -122l1 -5h-44l-4 3l-24 58c-62 -42.667 -123 -65 -183 -67c-42 0 -74.167 11.167 -96.5 33.5s-33.5 53.833 -33.5 94.5c0 56 15.667 94 47 114s74.333 30 129 30c6.66699 0 47 -2 121 -6v65
c0 44 -8.16699 74.5 -24.5 91.5s-39.166 25.5 -68.499 25.5s-86 -9 -170 -27l-9 48c82.667 24.667 142 37 178 37c54.667 0 98 -17 130 -51c19.333 -20.667 29 -71 29 -151zM342.999 211l-105 4.00195c-53.333 0 -88 -5.33301 -104 -16s-24 -31.834 -24 -63.501
s5.33301 -53.334 16 -65.001s29.167 -17.5 55.5 -17.5s57.333 5.33301 93 16s58.5 23 68.5 37v105z" />
    <glyph glyph-name="b" unicode="b" horiz-adv-x="509" 
d="M75 736h61.9971v-289c40 35.333 81.167 53 123.5 53s76.333 -6.16699 102 -18.5s44.834 -30.833 57.501 -55.5c22.667 -43.333 34 -101.333 34 -174c0 -46 -5.66699 -86.333 -17 -121s-24.833 -60.667 -40.5 -78s-33.5 -31.333 -53.5 -42
c-28.667 -15.333 -57 -23 -85 -23c-17.333 0 -31.666 1.16699 -42.999 3.5s-20 4 -26 5s-13.167 3 -21.5 6s-14.666 5.16699 -18.999 6.5s-11 4 -20 8s-14.833 6.66699 -17.5 8c-20 10 -32 15.667 -36 17v694zM136.997 67c37.333 -13.333 72.666 -20.001 105.999 -20.001
s58.666 4.16699 75.999 12.5s30.333 17.833 39 28.5s15.334 26 20.001 46c5.33301 26.667 8 61.334 8 104.001c0 79.333 -6.66699 133 -20 161s-46.666 42 -99.999 42s-96.333 -18.667 -129 -56v-318z" />
    <glyph glyph-name="c" unicode="c" horiz-adv-x="451" 
d="M211 490c24 7.33301 51.167 11.001 81.5 11.001s63.833 -6.33301 100.5 -19l-8 -44c-36.667 7.33301 -66 11 -88 11c-57.333 0 -101 -14.833 -131 -44.5s-45 -82.834 -45 -159.501c0 -134.667 54.667 -202 164 -202c34 0 70.333 12 109 36l27 -42
c-43.333 -31.333 -94 -47 -152 -47c-30 0 -56.167 3 -78.5 9s-44.5 17.333 -66.5 34c-46.667 34.667 -70 105.334 -70 212.001c0 50 7.66699 92.833 23 128.5s35.5 62.167 60.5 79.5s49.5 29.666 73.5 36.999z" />
    <glyph glyph-name="d" unicode="d" horiz-adv-x="516" 
d="M324 11.5c-26 -14.333 -55.666 -21.501 -88.999 -21.501s-62.833 6.16699 -88.5 18.5s-44.834 30.833 -57.501 55.5c-22.667 43.333 -34 101.333 -34 174c0 46 5.66699 86.167 17 120.5s24.833 60.333 40.5 78s33.5 31.834 53.5 42.501c28.667 15.333 57 23 85 23
s68.333 -12 121 -36v270h62v-609l24 -127h-41l-4 3l-24 58c-17.333 -18.667 -39 -35.167 -65 -49.5zM123.001 240.999c0 -72 6.66602 -122 19.999 -150s46.5 -42 99.5 -42s96.167 18.667 129.5 56v318c-33.333 13.333 -74.666 20 -123.999 20s-82.5 -15.667 -99.5 -47
s-25.5 -83 -25.5 -155z" />
    <glyph glyph-name="e" unicode="e" horiz-adv-x="492" 
d="M440 321c0 -24 -2.00293 -49.001 -6.00293 -75.001h-314c2.66699 -73.333 15 -123.833 37 -151.5s61 -41.5 117 -41.5c42 0 91 9 147 27l6 -50c-15.333 -6 -27.166 -10.167 -35.499 -12.5s-17.166 -5 -26.499 -8s-16.333 -5.16699 -21 -6.5s-11.334 -3 -20.001 -5
s-16 -3.33301 -22 -4c-18 -2 -33.333 -3 -46 -3c-62.667 0 -112 22 -148 66s-54 105.333 -54 184c0 43.333 5.33301 81.5 16 114.5s23.334 58.333 38.001 76s32.334 31.834 53.001 42.501c30.667 16.667 64 25.667 100 27c119.333 -0.666992 179 -60.667 179 -180z
M376.997 336.999c0 40 -10.001 68.001 -30.001 84.001s-49.667 24 -89 24s-71.666 -10.5 -96.999 -31.5s-38.333 -59.833 -39 -116.5h252c2 15.333 3 28.666 3 39.999z" />
    <glyph glyph-name="f" unicode="f" horiz-adv-x="297" 
d="M153 500c0 -5.33301 14.1689 -8.00098 42.502 -8.00098s48.5 0.166992 60.5 0.5s19.667 0.5 23 0.5l-9 -49h-109c-5.33301 0 -8 -1.33301 -8 -4v-514l-35 -124l-3 -3h-46l22 127v512c0 3.33301 -4.33301 5 -13 5h-34l1 29c27.333 12.667 42.666 19.667 45.999 21v1l-1 78
c0 34.667 7 63.834 21 87.501s31 40.5 51 50.5c38 17.333 73.667 26 107 26h6l21 -1l-11 -49c-0.666992 -1.33301 -3.83398 -1.5 -9.50098 -0.5s-11 1.5 -16 1.5s-13.167 -1.83301 -24.5 -5.5s-23.333 -8.5 -36 -14.5s-23.5 -17.333 -32.5 -34s-13.5 -37 -13.5 -61v-72z" />
    <glyph glyph-name="g" unicode="g" horiz-adv-x="501" 
d="M407 342c0 -52 -15.1641 -93.168 -45.4971 -123.501s-71.5 -45.5 -123.5 -45.5c-16 0 -37 2.33301 -63 7l-56 -78l251 1c33.333 0 59 -12.5 77 -37.5s27 -57.167 27 -96.5c0 -55.333 -21.833 -97.666 -65.5 -126.999s-98.834 -44 -165.501 -44
s-115.834 11.5 -147.501 34.5s-47.5 59.5 -47.5 109.5l95 98c-36.667 0 -60.834 5 -72.501 15s-17.5 25.667 -17.5 47c27.333 30.667 53.333 62.334 78 95.001c-24.667 18.667 -41 39.167 -49 61.5s-12 50.833 -12 85.5c0 51.333 16 91.666 48 120.999s74 44 126 44
c34.667 0 66 -7.33301 94 -22l111 -1l-13 -52l-57 -1c18.667 -30.667 28 -61 28 -91zM303.003 -149.501c12.667 1 26.165 3.66797 40.498 8.00098s25.833 10.166 34.5 17.499c20.667 16.667 30.834 43.834 30.501 81.501s-4.66602 61 -12.999 70s-29.833 13.5 -64.5 13.5
h-135l-82 -109c0 -36.667 14.333 -60.334 43 -71.001c22 -8 48.667 -12 80 -12s53.333 0.5 66 1.5zM238.001 223c73.333 0 110.001 38.666 110.001 115.999c0 44 -8.83301 74.833 -26.5 92.5s-44.834 26.5 -81.501 26.5s-64 -9.16699 -82 -27.5s-27.333 -49.166 -28 -92.499
c0 -76.667 36 -115 108 -115z" />
    <glyph glyph-name="h" unicode="h" horiz-adv-x="520" 
d="M142 0h-63.999v736h64v-291c30 20 56.5 34.667 79.5 44s49.167 14 78.5 14c96.667 0 145 -50.333 145 -151v-352h-65v352c-0.666992 60.667 -35.334 91 -104.001 91c-29.333 0 -58 -6.5 -86 -19.5s-44 -25.167 -48 -36.5v-387z" />
    <glyph glyph-name="i" unicode="i" horiz-adv-x="218" 
d="M78 492h62v-492h-62v492zM74 657h70v-72h-70v72z" />
    <glyph glyph-name="j" unicode="j" horiz-adv-x="217" 
d="M74 657h70v-72h-70v72zM78 492h61v-531c0 -56 -17.5 -95.667 -52.5 -119s-85.167 -38 -150.5 -44l8 46c61.333 13.333 100 30 116 50c8 10.667 13 20.5 15 29.5s3 21.5 3 37.5v531z" />
    <glyph glyph-name="k" unicode="k" horiz-adv-x="485" 
d="M140 0h-62v736h62v-444l174 200h75l-171 -196l259 -296h-80l-219 251l-38 -44v-207z" />
    <glyph glyph-name="l" unicode="l" horiz-adv-x="218" 
d="M74 736h62v-617l25 -128h-46l-4 4l-37 124v617z" />
    <glyph glyph-name="m" unicode="m" horiz-adv-x="789" 
d="M429 0l-64.998 0.000976562v352c-1.33301 34.667 -7.83301 58.5 -19.5 71.5s-33.167 19.5 -64.5 19.5s-60.5 -6.5 -87.5 -19.5s-42.833 -25.167 -47.5 -36.5v-387h-64v365l-17 122h47l3 -3l15 -50c25.333 16.667 44.166 28.667 56.499 36s29.5 14.666 51.5 21.999
s44.333 11 67 11c56 0 93.333 -22.333 112 -67c24 16 42.667 27.667 56 35c37.333 21.333 76 32 116 32s70.833 -11.333 92.5 -34s32.834 -61.667 33.501 -117v-352h-65v352c-1.33301 34.667 -7.83301 58.5 -19.5 71.5s-33.334 19.5 -65.001 19.5
s-60.834 -6.5 -87.501 -19.5s-42.667 -25.167 -48 -36.5v-387z" />
    <glyph glyph-name="n" unicode="n" horiz-adv-x="524" 
d="M449 0h-64.999v352c-0.666992 32.667 -9.83398 56 -27.501 70s-42.667 21 -75 21s-62 -6.33301 -89 -19s-42.833 -24.667 -47.5 -36v-388h-64v365l-17 122h43l3 -2l19 -51c23.333 16 42.333 28 57 36c36.667 22 76.667 33 120 33c93.333 0 141 -50.333 143 -151v-352z
" />
    <glyph glyph-name="o" unicode="o" horiz-adv-x="526" 
d="M312.5 439c-14.333 3.33301 -34.1641 5 -59.4971 5s-47.5 -4.16699 -66.5 -12.5s-33 -22.333 -42 -42s-14.833 -39.667 -17.5 -60s-4 -48.166 -4 -83.499c0 -75.333 8.5 -127.333 25.5 -156s54.5 -43 112.5 -43c31.333 0 56.666 4 75.999 12s33.666 21.5 42.999 40.5
s15.333 39 18 60s4 46 4 75s-0.166992 49.667 -0.5 62s-1.5 26.666 -3.5 42.999s-4.83301 28.833 -8.5 37.5s-8.83398 18 -15.501 28s-15 17.333 -25 22s-22.167 8.66699 -36.5 12zM385.002 479.5c28.667 -13.667 49.999 -38.833 63.999 -75.5s21 -84 21 -142
s-6.16699 -104.333 -18.5 -139s-28.833 -61.334 -49.5 -80.001c-40 -36 -86.667 -54 -140 -54c-78 0 -132 18.333 -162 55s-45 103.667 -45 201c0 46.667 6.33301 87.334 19 122.001s29.667 61 51 79c41.333 36 87.833 54 139.5 54s91.834 -6.83301 120.501 -20.5z" />
    <glyph glyph-name="p" unicode="p" horiz-adv-x="513" 
d="M270 501c77.333 0 128.997 -24.335 154.997 -73.002c12.667 -24 21.334 -49.5 26.001 -76.5s7 -61.667 7 -104s-5.66699 -80.666 -17 -114.999s-24.666 -60.166 -39.999 -77.499s-33 -31.333 -53 -42c-28.667 -15.333 -56.167 -23 -82.5 -23s-67.166 11.667 -122.499 35
v-226h-62v566l-17 121h41l3 -3l18 -51c43.333 46 91.333 69 144 69zM142.997 67.998c36 -12.667 71.1689 -18.999 105.502 -18.999s60 4.16699 77 12.5s29.667 17.666 38 27.999s14.666 25.833 18.999 46.5s6.66602 37 6.99902 49s0.5 32.5 0.5 61.5s-0.5 52.333 -1.5 70
s-3.33301 36 -7 55s-9.5 32.5 -17.5 40.5c-20 20 -49.667 30 -89 30c-56 0 -100 -18.333 -132 -55v-319z" />
    <glyph glyph-name="q" unicode="q" horiz-adv-x="508" 
d="M432 -201h-61.999v243c-39.333 -34.667 -80.333 -52 -123 -52s-76.667 6.16699 -102 18.5s-44.333 30.833 -57 55.5c-22 42 -33 100 -33 174c0 46 5.66699 86.167 17 120.5s24.666 60.333 39.999 78s33 31.5 53 41.5c29.333 15.333 57.333 23 84 23
c54 0 115 -17.667 183 -53v-649zM370.001 423c-39.333 12.667 -74.168 18.999 -104.501 18.999s-53.333 -2.5 -69 -7.5s-28.167 -12.833 -37.5 -23.5s-16.833 -21 -22.5 -31s-9.5 -23.667 -11.5 -41c-3.33301 -28.667 -5 -58.5 -5 -89.5s0.5 -55.833 1.5 -74.5
s3.66699 -37.167 8 -55.5s10.833 -32.166 19.5 -41.499c18.667 -19.333 48.334 -29 89.001 -29c55.333 0 99.333 18.667 132 56v318z" />
    <glyph glyph-name="r" unicode="r" horiz-adv-x="341" 
d="M283 500c13.333 0 28.001 -2.00098 44.001 -6.00098l-24 -59c-10.667 2 -21.334 3 -32.001 3c-42 0 -84.667 -23.333 -128 -70v-368h-62v364l-17 122h38l3 -2l19 -71c29.333 28.667 56 50.334 80 65.001s50.333 22 79 22z" />
    <glyph glyph-name="s" unicode="s" horiz-adv-x="418" 
d="M59 68c41.333 -16 80.001 -23.998 116.001 -23.998s66.833 7.5 92.5 22.5s38.5 34.833 38.5 59.5s-8.66699 44.5 -26 59.5s-38.333 27.167 -63 36.5s-49.167 19.166 -73.5 29.499s-45.166 25 -62.499 44s-26 42.5 -26 70.5c0 44 15.333 77.833 46 101.5
s69.167 35.5 115.5 35.5s90.833 -7.66699 133.5 -23l-13 -46c-33.333 11.333 -71 17 -113 17c-69.333 0 -104 -27 -104 -81c0 -34.667 30 -63.334 90 -86.001c25.333 -9.33301 50.5 -19.5 75.5 -30.5s46.333 -26.833 64 -47.5s26.5 -45.667 26.5 -75
c0 -44.667 -19.333 -79 -58 -103s-83.334 -36 -134.001 -36s-97.334 9 -140.001 27z" />
    <glyph glyph-name="t" unicode="t" horiz-adv-x="275" 
d="M88 440c0 3.33301 -1.66699 5 -5 5h-40v29l46 19l11 88h51v-80c2 -4.66699 15.667 -7 41 -7h59l-8 -47l-84 -1c-6 0 -9 -1.33301 -9 -4v-316l26 -130h-44l-4 3l-40 127v314z" />
    <glyph glyph-name="u" unicode="u" horiz-adv-x="524" 
d="M75 492l64.9961 -0.000976562v-351c0.666992 -33.333 9.83398 -56.666 27.501 -69.999s43.334 -20 77.001 -20s63.334 6.33301 89.001 19s40.834 24.667 45.501 36v386h64v-363l18 -129h-42l-3 3l-21 56c-26 -17.333 -44.667 -29.5 -56 -36.5s-27.833 -14 -49.5 -21
s-44.5 -10.5 -68.5 -10.5c-95.333 0 -144 50.333 -146 151v350z" />
    <glyph glyph-name="v" unicode="v" horiz-adv-x="497" 
d="M27 492h69l134 -378l17 -53h3l15 53l135 378h69l-182 -487l-4 -5h-69l-4 5z" />
    <glyph glyph-name="w" unicode="w" horiz-adv-x="753" 
d="M341 492h71l111 -388l7 -39h2l7 39l113 388h70l-156 -492h-69l-110 374l-9 48h-3l-9 -48l-111 -374h-69l-154 492h70l111 -388l6 -39h3l6 39z" />
    <glyph glyph-name="x" unicode="x" horiz-adv-x="461" 
d="M38 492h74l118 -188l118 188h74l-158 -235l173 -257h-72l-135 211l-135 -211h-71l172 257z" />
    <glyph glyph-name="y" unicode="y" horiz-adv-x="497" 
d="M19 -144c24 -6.66699 44.333 -9.99902 61 -9.99902c52.667 1.33301 88 25.666 106 72.999l30 80l-191 493h72l152 -422l149 422h70l-220 -593c-27.333 -67.333 -77.333 -101 -150 -101c-30.667 0 -64.667 6 -102 18z" />
    <glyph glyph-name="z" unicode="z" horiz-adv-x="461" 
d="M407 492v-54l-282 -367l-15 -15h314l-19 -56h-368v55l285 367l15 15h-279v55h349z" />
    <glyph glyph-name="braceleft" unicode="{" horiz-adv-x="266" 
d="M170 563l0.999023 -191.997c0 -15.333 -3 -27.333 -9 -36s-10.833 -15.334 -14.5 -20.001s-8.16699 -9 -13.5 -13l-13 -10c-10 -8 -16 -12 -18 -12c-2 -1.33301 -3 -4.33301 -3 -9s1 -7.66699 3 -9c26 -16 42.333 -29 49 -39c12.667 -18 19 -35.333 19 -52
c0 -85.333 -0.333008 -149.333 -1 -192l3 -76c9.33301 -19.333 23 -41.333 41 -66l-26 -23l-20.5 17c-9 7.33301 -14.667 12.166 -17 14.499s-6.66602 6.33301 -12.999 12s-10 9.66699 -11 12s-3.5 6 -7.5 11s-6.16699 9.5 -6.5 13.5s-1.5 9 -3.5 15s-3 12.333 -3 19l-1 52
v204c0 2.66699 -7.5 12.5 -22.5 29.5s-27.833 30.5 -38.5 40.5c-1.33301 4.66699 -2 11 -2 19s0.333008 13 1 15c41.333 41.333 62 64.666 62 69.999v203l1 53c0 6.66699 1 12.834 3 18.501s3.16699 10.667 3.5 15s2.5 9 6.5 14s6.5 8.66699 7.5 11s4.66699 6.33301 11 12
l13 11.5l17.5 14.5l20 16.5l26 -23c-18 -22.667 -31.667 -44.334 -41 -65.001z" />
    <glyph glyph-name="bar" unicode="|" horiz-adv-x="246" 
d="M91 682h64l-1 -726h-63v726z" />
    <glyph glyph-name="braceright" unicode="}" horiz-adv-x="266" 
d="M161 -20l-1.00098 -52.002c0 -6.66699 -1 -13 -3 -19s-3.16699 -11 -3.5 -15s-2.5 -8.5 -6.5 -13.5s-6.5 -8.66699 -7.5 -11s-4.66699 -6.33301 -11 -12s-10.666 -9.66699 -12.999 -12s-8 -7.16602 -17 -14.499l-20.5 -17l-26 23c18 24.667 31.667 46.667 41 66l3 76
c-0.666992 42.667 -1 106.667 -1 192c0 32.667 20 61.334 60 86.001l8 5c2 1.33301 3 4.33301 3 9s-1 7.66699 -3 9c-2 0 -6.33301 2.66699 -13 8l-18 14c-5.33301 4 -9.83301 8.33301 -13.5 13l-11.5 15c-8 12 -12 25.667 -12 41l1 192l-3 76
c-9.33301 20.667 -23 42.334 -41 65.001l26 23l20 -16.5l17.5 -14.5l13 -11.5c6.33301 -5.66699 10 -9.66699 11 -12s3.5 -6 7.5 -11s6.16699 -9.66699 6.5 -14s1.5 -9.33301 3.5 -15s3 -11.834 3 -18.501l1 -53v-203c0 -5.33301 20.667 -28.666 62 -69.999
c0.666992 -2 1 -4.66699 1 -8c0 -12.667 -0.666992 -21.334 -2 -26.001c-10.667 -10 -23.5 -23.5 -38.5 -40.5s-22.5 -26.833 -22.5 -29.5v-204z" />
    <glyph glyph-name="asciitilde" unicode="~" horiz-adv-x="500" 
d="M382 246c-12.667 -10 -22.167 -15.667 -28.5 -17s-12.5 -2 -18.5 -2s-14.333 1 -25 3l-145 23l-75 -32l-18 28l42 41c14 11.333 23.833 18 29.5 20s11.5 3 17.5 3s13 -0.666992 21 -2l155 -26l74 35l18 -35z" />
    <glyph glyph-name="nbspace" unicode="&#xa0;" horiz-adv-x="228" 
 />
    <glyph glyph-name="exclamdown" unicode="&#xa1;" horiz-adv-x="237" 
d="M96 355h45l10 -234l5 -291h-75l5 291zM82 500h72v-74h-72v74z" />
    <glyph glyph-name="cent" unicode="&#xa2;" horiz-adv-x="466" 
d="M238 -15v95.001c-50.667 4 -92.667 22 -126 54c-37.333 36 -56 102.667 -56 200c0 84.667 20 147 60 187c35.333 35.333 76 57 122 65v98h54v-94c32 -0.666992 65.667 -7 101 -19l-8 -44c-36.667 7.33301 -66 11 -88 11c-57.333 0 -101 -14.833 -131 -44.5
s-45 -82.834 -45 -159.501c0 -134.667 54.667 -202 164 -202c34 0 70.333 12 109 36l27 -42c-38.667 -28 -81.667 -43.667 -129 -47v-94h-54z" />
    <glyph glyph-name="sterling" unicode="&#xa3;" horiz-adv-x="514" 
d="M52 274l0.000976562 50.001h76l-9 37.5c-4 16.333 -7 29.166 -9 38.499c-6 26.667 -9 46.334 -9 59.001c0 64 16.833 111.667 50.5 143s77.667 47 132 47s107.166 -10.333 158.499 -31l-19 -51c-40 18 -84 27 -132 27s-80.333 -9 -97 -27s-25 -52 -25 -102
c0 -23.333 1.66699 -42.666 5 -57.999l12 -48c4 -16.667 6.66699 -28.334 8 -35.001h126v-50h-116c2 -15.333 3 -30.333 3 -45c0 -60.667 -17.667 -118.334 -53 -173.001h311v-56h-388v55c43.333 38 65 92 65 162c0 18 -1.33301 37 -4 57h-86z" />
    <glyph glyph-name="currency" unicode="&#xa4;" horiz-adv-x="684" 
d="M141 124c-43.333 45.333 -65.001 109.668 -65.001 193.001s20.667 145.666 62 186.999l-74 89l48 40l77 -92c40 19.333 90.167 29 150.5 29s110.5 -10.333 150.5 -31l80 94l48 -40l-76 -91c45.333 -45.333 68 -110.5 68 -195.5s-21 -148.167 -63 -189.5l71 -84l-49 -41
l-75 88c-39.333 -18.667 -89.166 -28 -149.499 -28s-111.5 11 -153.5 33l-78 -93l-49 41zM340.999 108.002c86 0 143 21.335 171 64.002c13.333 21.333 22.5 42.666 27.5 63.999s7.5 45.666 7.5 72.999s-3 52 -9 74s-16 43.333 -30 64c-30 44.667 -83.5 67 -160.5 67
s-131.167 -16.667 -162.5 -50s-47 -84.5 -47 -153.5s17.833 -120 53.5 -153s85.5 -49.5 149.5 -49.5z" />
    <glyph glyph-name="yen" unicode="&#xa5;" horiz-adv-x="546" 
d="M93 265v50h120l-179 333h74l165 -324l168 324h71l-178 -333h120v-50h-147l-1 -82h148v-50h-148v-133h-66v133h-147v50h147v82h-147z" />
    <glyph glyph-name="brokenbar" unicode="&#xa6;" horiz-adv-x="245" 
d="M92 -44v286h61v-286h-61zM92 394v290h61v-290h-61z" />
    <glyph glyph-name="section" unicode="&#xa7;" horiz-adv-x="495" 
d="M52 307c0 58 29.002 110.004 87.002 156.004c-22.667 14 -39.167 29.667 -49.5 47s-15.5 39.666 -15.5 66.999c0 46.667 16.667 84.667 50 114s77.666 44 132.999 44c30.667 0 65.667 -5.33301 105 -16l19 -5l-12 -46c-31.333 10.667 -62.333 16 -93 16
c-52 0 -86.667 -8.83301 -104 -26.5s-26 -41.834 -26 -72.501c0 -14.667 2.16699 -27.167 6.5 -37.5s12.833 -19.833 25.5 -28.5c15.333 -10.667 33 -20.334 53 -29.001s30.5 -13.334 31.5 -14.001s2.5 -1.33398 4.5 -2.00098s3.66699 -1.33398 5 -2.00098
c62 -26 103 -47 123 -63c36 -30 53.667 -69.667 53 -119c-2 -56.667 -31 -107.334 -87 -152.001c23.333 -13.333 40.333 -28.666 51 -45.999s16 -39.666 16 -66.999c0 -46.667 -16.667 -84.667 -50 -114s-77.666 -44 -132.999 -44c-20.667 0 -45.334 3.33301 -74.001 10
s-52.334 13.334 -71.001 20.001l-27 10l14 46c62 -23.333 107.5 -35 136.5 -35s52.333 2.66699 70 8s30.5 13.333 38.5 24c12.667 16 19 35 19 57s-2.16699 38.333 -6.5 49s-13.833 20.667 -28.5 30c-20 13.333 -55.167 30.5 -105.5 51.5s-85.5 39.5 -105.5 55.5
c-35.333 28.667 -53 66.667 -53 114zM128.002 315.004c0 -32.667 10.666 -57.666 31.999 -74.999c17.333 -12.667 35.333 -23.5 54 -32.5s52.334 -24.167 101.001 -45.5c38 29.333 57 71 57 125c0 32.667 -10.667 57.667 -32 75c-17.333 12.667 -42.333 27 -75 43l-81 35
c-37.333 -28.667 -56 -70.334 -56 -125.001z" />
    <glyph glyph-name="dieresis" unicode="&#xa8;" horiz-adv-x="550" 
d="M166 658h72v-74h-72v74zM312 658h72v-74h-72v74z" />
    <glyph glyph-name="copyright" unicode="&#xa9;" horiz-adv-x="756" 
d="M389 494c22 0 52.3311 -5.33301 90.998 -16l-12 -40l-19 2c-25.333 5.33301 -44.666 8 -57.999 8c-42 0 -72.833 -8.83301 -92.5 -26.5s-29.5 -55.167 -29.5 -112.5s9 -96.166 27 -116.499s43 -30.5 75 -30.5s62.333 8.66699 91 26l18 -40
c-30.667 -21.333 -68 -32 -112 -32c-21.333 0 -39.666 2 -54.999 6s-31 12 -47 24c-32 24.667 -48 77.667 -48 159c0 77.333 20 129.666 60 156.999c32 21.333 69 32 111 32zM602.498 528.5c62.333 -62.333 93.5 -137.5 93.5 -225.5s-30.167 -162.833 -90.5 -224.5
s-135.166 -92.5 -224.499 -92.5s-165.166 31.167 -227.499 93.5s-93.5 137.5 -93.5 225.5s30.167 162.833 90.5 224.5s135.166 92.5 224.499 92.5s165.166 -31.167 227.499 -93.5zM569.498 109.5c46.333 49.667 69.5 113 69.5 190s-25.333 141.333 -76 193
s-114.667 77.5 -192 77.5s-139.166 -24.5 -185.499 -73.5s-69.5 -112.167 -69.5 -189.5s25.333 -142 76 -194s114.667 -78 192 -78s139.166 24.833 185.499 74.5z" />
    <glyph glyph-name="ordfeminine" unicode="&#xaa;" horiz-adv-x="351" 
d="M163 588l37.999 -1h26v28c0 21.333 -4 36 -12 44s-19.167 12 -33.5 12s-36.833 -2.66699 -67.5 -8l-40 -6l-6 42l26 6c36 10 64.333 15 85 15c34 0 60.667 -10.667 80 -32v1c13.333 -11.333 20 -41 20 -89v-95l13 -67v-13l-42 1l-10 27
c-36.667 -20 -69.667 -30.333 -99 -31s-51.166 6 -65.499 20s-21.5 35.833 -21.5 65.5s9.5 50.5 28.5 62.5s45.833 18 80.5 18zM173.999 544c-28 0 -46.167 -2.49902 -54.5 -7.49902s-12.5 -14.833 -12.5 -29.5s2.5 -24.334 7.5 -29.001s14.333 -7 28 -7
s29.667 2.16699 48 6.5s30.5 9.83301 36.5 16.5v49c-7.33301 0.666992 -25 1 -53 1z" />
    <glyph glyph-name="guillemotleft" unicode="&#xab;" horiz-adv-x="490" 
d="M115 279.5c0 -9 7.66699 -21.167 23 -36.5l111 -117l-41 -38l-162 173v38l161 172l42 -36l-111 -119c-15.333 -15.333 -23 -27.5 -23 -36.5zM301 279.5c0 -9 7.66699 -21.167 23 -36.5l111 -117l-41 -38l-162 173v38l161 172l42 -36l-111 -119
c-15.333 -15.333 -23 -27.5 -23 -36.5z" />
    <glyph glyph-name="logicalnot" unicode="&#xac;" horiz-adv-x="525" 
d="M66 384v59h381v-207h-59v148h-322z" />
    <glyph glyph-name="registered" unicode="&#xae;" horiz-adv-x="756" 
d="M364 264l-18 0.999023h-34v-139h-48v366h110c42 0 74.167 -7.5 96.5 -22.5s33.5 -45.167 33.5 -90.5c0 -61.333 -24.333 -97.666 -73 -108.999l90 -130l-37 -26l-106 150h-14zM343 307.999l20.999 -1h20c27.333 0 45.833 4.33301 55.5 13s14.5 27.667 14.5 57
s-6.16699 48.333 -18.5 57s-35.166 13 -68.499 13h-55v-139h31zM602.499 528.499c62.333 -62.333 93.5 -137.5 93.5 -225.5s-30.167 -162.833 -90.5 -224.5s-135.166 -92.5 -224.499 -92.5s-165.166 31.167 -227.499 93.5s-93.5 137.5 -93.5 225.5
s30.167 162.833 90.5 224.5s135.166 92.5 224.499 92.5s165.166 -31.167 227.499 -93.5zM569.499 109.499c46.333 49.667 69.5 113 69.5 190s-25.333 141.333 -76 193s-114.667 77.5 -192 77.5s-139.166 -24.5 -185.499 -73.5s-69.5 -112.167 -69.5 -189.5
s25.333 -142 76 -194s114.667 -78 192 -78s139.166 24.833 185.499 74.5z" />
    <glyph glyph-name="macron" unicode="&#xaf;" horiz-adv-x="541" 
d="M70 657v59h401v-59h-401z" />
    <glyph glyph-name="degree" unicode="&#xb0;" horiz-adv-x="340" 
d="M258 653c20 -22 30.002 -49.5 30.002 -82.5s-10.167 -61.167 -30.5 -84.5s-49.833 -35 -88.5 -35s-67.834 11.333 -87.501 34s-29.5 50.5 -29.5 83.5s10.167 60.833 30.5 83.5s49.666 34 87.999 34s67.5 -11 87.5 -33zM238.002 570c0 20 -5.49902 36.998 -16.499 50.998
s-28.167 21 -51.5 21s-40.5 -7.16699 -51.5 -21.5s-16.5 -31.666 -16.5 -51.999s5.33301 -37.666 16 -51.999s27.667 -21.5 51 -21.5s40.666 7.5 51.999 22.5s17 32.5 17 52.5z" />
    <glyph glyph-name="plusminus" unicode="&#xb1;" horiz-adv-x="521" 
d="M69 0v59h382v-59h-382zM230 551h59v-166h162v-59h-162v-160h-59v160h-160v59h160v166z" />
    <glyph glyph-name="twosuperior" unicode="&#xb2;" horiz-adv-x="305" 
d="M243 452v-46.0039h-182v20c0 45.333 23.333 87.333 70 126h-1c20.667 16.667 34 29.334 40 38.001s9 19.5 9 32.5s-2.83301 22 -8.5 27s-16.5 7.5 -32.5 7.5s-36.333 -5.66699 -61 -17l-15 45c36.667 13.333 66.667 20 90 20s42.666 -7.16699 57.999 -21.5
s23 -32.333 23 -54s-3.5 -38.5 -10.5 -50.5s-19.167 -26 -36.5 -42l-22 -20c-4 -4 -7.66699 -7.33301 -11 -10s-5.66602 -4.66699 -6.99902 -6l-8.5 -8.5c-2.33301 -2.33301 -4.5 -4.66602 -6.5 -6.99902s-3.5 -4.16602 -4.5 -5.49902s-2.16699 -3.16602 -3.5 -5.49902
s-2.33301 -4.5 -3 -6.5c-2.66699 -6.66699 -4.66699 -12 -6 -16h129z" />
    <glyph glyph-name="threesuperior" unicode="&#xb3;" horiz-adv-x="293" 
d="M79 645l-14 40.998c30 12.667 54.667 19 74 19c56 0 84.667 -27.333 86 -82c0 -25.333 -5.66699 -45.666 -17 -60.999c20 -22.667 30 -47.834 30 -75.501s-9.16699 -50.167 -27.5 -67.5s-41.5 -26 -69.5 -26s-57.667 9 -89 27l23 44c24.667 -14 46.667 -21 66 -21
s32.333 4 39 12c4 7.33301 6 18.333 6 33c0 26.667 -8.33301 42.334 -25 47.001c-6 0.666992 -16.667 1 -32 1h-24v42h27c20 2.66699 32 7.33398 36 14.001c4 12 6 21.333 6 28c0 26.667 -13.333 40 -40 40c-14 0 -32.333 -5 -55 -15z" />
    <glyph glyph-name="acute" unicode="&#xb4;" horiz-adv-x="351" 
d="M220 719l48 -45c-28 -25.333 -60 -50.333 -96 -75l-68 -28c-3.33301 4 -8 8.66699 -14 14s-10.667 10.333 -14 15l20 14c40.667 27.333 68.5 48.333 83.5 63s28.5 28.667 40.5 42z" />
    <glyph glyph-name="mu" unicode="&#xb5;" horiz-adv-x="552" 
d="M89 -195l-0.00292969 686.999h65v-351c0.666992 -33.333 9.83398 -56.666 27.501 -69.999s43.334 -20 77.001 -20s63.334 6.33301 89.001 19s40.834 24.667 45.501 36v386h64v-363l18 -129h-42l-3 3l-21 56c-26 -17.333 -44.667 -29.5 -56 -36.5s-27.833 -14 -49.5 -21
s-42.834 -10.5 -63.501 -10.5c-38 0 -64 6.66699 -78 20l-8 7v-213h-65z" />
    <glyph glyph-name="mu" unicode="&#x3bc;" horiz-adv-x="552" 
d="M89 -195l-0.00292969 686.999h65v-351c0.666992 -33.333 9.83398 -56.666 27.501 -69.999s43.334 -20 77.001 -20s63.334 6.33301 89.001 19s40.834 24.667 45.501 36v386h64v-363l18 -129h-42l-3 3l-21 56c-26 -17.333 -44.667 -29.5 -56 -36.5s-27.833 -14 -49.5 -21
s-42.834 -10.5 -63.501 -10.5c-38 0 -64 6.66699 -78 20l-8 7v-213h-65z" />
    <glyph glyph-name="paragraph" unicode="&#xb6;" horiz-adv-x="512" 
d="M416 648l0.00195312 -729.999h-66v674h-84v-674h-68v413c-46.667 0 -84.834 14.5 -114.501 43.5s-44.5 67.667 -44.5 116s14.167 86.666 42.5 114.999s67.166 42.5 116.499 42.5h218z" />
    <glyph glyph-name="periodcentered" unicode="&#xb7;" horiz-adv-x="241" 
d="M82.5 310c11 9.33301 25 14 42 14s29.667 -4.33301 38 -13s12.5 -23.667 12.5 -45c0 -38.667 -18.167 -58 -54.5 -58s-54.5 19.333 -54.5 58c0 20 5.5 34.667 16.5 44z" />
    <glyph glyph-name="cedilla" unicode="&#xb8;" horiz-adv-x="339" 
d="M169 -5h60v-59l-42 -110l-3 -4h-44l29 114v59z" />
    <glyph glyph-name="onesuperior" unicode="&#xb9;" horiz-adv-x="236" 
d="M109 707h55v-299h-55v237l-48 -29l-25 43l73 47v1z" />
    <glyph glyph-name="ordmasculine" unicode="&#xba;" horiz-adv-x="367" 
d="M183 668c-31.333 0 -51.335 -8.16504 -60.002 -24.498s-13 -44.333 -13 -84s4.5 -67.334 13.5 -83.001s29 -23.5 60 -23.5s50.833 8.16699 59.5 24.5s13 39.666 13 69.999s-0.5 50.333 -1.5 60s-3.66699 20.167 -8 31.5s-11.666 19 -21.999 23s-24.166 6 -41.499 6z
M182.998 717.002c48.667 0 82.332 -10.668 100.999 -32.001s28 -61 28 -119s-12.667 -99.5 -38 -124.5s-55.666 -37.5 -90.999 -37.5c-48 0 -81.333 11.333 -100 34s-28 62.334 -28 119.001s13 97.5 39 122.5s55.667 37.5 89 37.5z" />
    <glyph glyph-name="guillemotright" unicode="&#xbb;" horiz-adv-x="490" 
d="M375 279.5c0 9 -7.66699 21.167 -23 36.5l-111 119l42 36l161 -172v-38l-162 -173l-41 38l111 117c15.333 15.333 23 27.5 23 36.5zM189 279.5c0 9 -7.66699 21.167 -23 36.5l-111 119l42 36l161 -172v-38l-162 -173l-41 38l111 117c15.333 15.333 23 27.5 23 36.5z" />
    <glyph glyph-name="onequarter" unicode="&#xbc;" horiz-adv-x="714" 
d="M147 6l327 735l53 -23l-326 -735zM645 175h31v-50h-31v-75h-55v75h-110v43c0 19.333 4.66699 36 14 50l90 138l42 -27l-81 -129c-7.33301 -10.667 -11 -19 -11 -25h56v41h55v-41zM102 698h55v-299h-55v237l-48 -29l-25 43l73 47v1z" />
    <glyph glyph-name="onehalf" unicode="&#xbd;" horiz-adv-x="725" 
d="M147 6l327 735l53 -23l-326 -735zM677 51h-181.998v20c0 45.333 23.333 87.333 70 126h-1c20.667 16.667 34 29.334 40 38.001s9 19.5 9 32.5s-2.83301 22 -8.5 27s-16.5 7.5 -32.5 7.5s-36.333 -5.66699 -61 -17l-15 45c36.667 13.333 66.667 20 90 20
s42.666 -7.16699 57.999 -21.5s23 -32.333 23 -54s-3.5 -38.5 -10.5 -50.5s-19.167 -26 -36.5 -42l-55 -50c-6.66699 -6.66699 -12.334 -18.334 -17.001 -35.001h129v-46zM102.002 698h55v-299h-55v237l-48 -29l-25 43l73 47v1z" />
    <glyph glyph-name="threequarters" unicode="&#xbe;" horiz-adv-x="772" 
d="M205 6l327 735l53 -23l-326 -735zM155 592c4 12 6 21.3311 6 27.998c0 26.667 -13.333 40 -40 40c-14 0 -32.333 -5 -55 -15l-14 41c30 12.667 54.667 19 74 19c56 0 84.667 -27.333 86 -82c0 -25.333 -5.66699 -45.666 -17 -60.999c20 -22.667 30 -47.834 30 -75.501
s-9.16699 -50.167 -27.5 -67.5s-41.5 -26 -69.5 -26s-57.667 9 -89 27l23 44c24.667 -14 46.667 -21 66 -21s32.333 4 39 12c4 7.33301 6 18.333 6 33c0 26.667 -8.33301 42.334 -25 47.001c-6 0.666992 -16.667 1 -32 1h-24v42h27c20 2.66699 32 7.33398 36 14.001z
M703 174.998h31v-50h-31v-75h-55v75h-110v43c0 19.333 4.66699 36 14 50l90 138l42 -27l-81 -129c-7.33301 -10.667 -11 -19 -11 -25h56v41h55v-41z" />
    <glyph glyph-name="questiondown" unicode="&#xbf;" horiz-adv-x="401" 
d="M352 -116l13.999 -53.9971c-45.333 -4.66699 -87.333 -7 -126 -7c-22 0 -40.333 1.5 -55 4.5s-30.334 7.33301 -47.001 13s-30.167 13.5 -40.5 23.5s-20.166 22 -29.499 36c-16.667 27.333 -25 68.333 -25 123c0 48 11 84.333 33 109c11.333 12.667 20.833 22 28.5 28
s17 12.5 28 19.5s23.5 14.5 37.5 22.5s26 16.667 36 26c14 12.667 21 34 21 64l2 64h56c1.33301 -21.333 2 -48.333 2 -81c0 -47.333 -21 -84 -63 -110l-52 -32c-17.333 -10.667 -32.166 -24.834 -44.499 -42.501s-18.5 -43.334 -18.5 -77.001s7 -60.167 21 -79.5
c7.33301 -10 14.833 -18.833 22.5 -26.5s17.667 -13.334 30 -17.001s23 -6.66699 32 -9s27.167 -3.5 54.5 -3.5s55 2 83 6zM221.999 504.003h72v-74h-72v74z" />
    <glyph glyph-name="Agrave" unicode="&#xc0;" 
d="M253 648h90l219 -648h-71l-67 201h-252l-67 -201h-71zM190 257h217l-106 336h-3zM202 827l48.001 45c25.333 -28 46.333 -48.333 63 -61c23.333 -18 43.666 -32.667 60.999 -44l20 -14c-3.33301 -4.66699 -8 -9.66699 -14 -15s-10.667 -10 -14 -14l-68 28
c-36 24.667 -68 49.667 -96 75z" />
    <glyph glyph-name="Aacute" unicode="&#xc1;" 
d="M253 648h90l219 -648h-71l-67 201h-252l-67 -201h-71zM190 257h217l-106 336h-3zM346 875l48 -45c-28 -25.333 -60 -50.333 -96 -75l-68 -28c-3.33301 4 -8 8.66699 -14 14s-10.667 10.333 -14 15l20 14c40.667 27.333 68.5 48.333 83.5 63s28.5 28.667 40.5 42z" />
    <glyph glyph-name="Acircumflex" unicode="&#xc2;" 
d="M253 648h90l219 -648h-71l-67 201h-252l-67 -201h-71zM190 257h217l-106 336h-3zM298 830l-106 -87l-28 30l104 106h60l104 -106l-29 -30z" />
    <glyph glyph-name="Atilde" unicode="&#xc3;" 
d="M253 648h90l219 -648h-71l-67 201h-252l-67 -201h-71zM190 257h217l-106 336h-3zM399 752c-12.667 -10 -22 -15.5 -28 -16.5s-11.833 -1.5 -17.5 -1.5s-14.5 1.66699 -26.5 5l-85 20l-75 -32l-18 28l42 35c14 12 23.5 18.5 28.5 19.5s10 1.5 15 1.5
s13.167 -1.33301 24.5 -4l95 -22l74 35l18 -29z" />
    <glyph glyph-name="Adieresis" unicode="&#xc4;" 
d="M253 648h90l219 -648h-71l-67 201h-252l-67 -201h-71zM190 257h217l-106 336h-3zM189 814h72v-74h-72v74zM335 814h72v-74h-72v74z" />
    <glyph glyph-name="Aring" unicode="&#xc5;" 
d="M253 648h90l219 -648h-71l-67 201h-252l-67 -201h-71zM190 257h217l-106 336h-3zM395 826c0 -26.667 -8.50195 -49.667 -25.502 -69s-41.167 -29 -72.5 -29s-55.166 9.33301 -71.499 28s-24.5 41.5 -24.5 68.5s8.33301 49.833 25 68.5s40.834 28 72.501 28
s55.667 -9.16699 72 -27.5s24.5 -40.833 24.5 -67.5zM340.998 781.5c10 13 15.001 27.6689 15.001 44.002s-4.83301 30.666 -14.5 42.999s-24 18.5 -43 18.5s-33.5 -6.16699 -43.5 -18.5s-15 -26.833 -15 -43.5s4.66699 -31.334 14 -44.001s23.666 -19 42.999 -19
s34 6.5 44 19.5z" />
    <glyph glyph-name="AE" unicode="&#xc6;" horiz-adv-x="798" 
d="M382 0v201h-199l-103 -201h-71l329 648h88l1 -648h-45zM382 257v338l-172 -338h172zM750 0h-368v648h357l-7 -56h-283v-229h250v-56h-251v-251h302v-56z" />
    <glyph glyph-name="Ccedilla" unicode="&#xc7;" horiz-adv-x="553" 
d="M281 653.5c-24 -4.33301 -50.0039 -13.667 -78.0039 -28s-51.833 -33.166 -71.5 -56.499s-36.167 -56 -49.5 -98s-20 -91.5 -20 -148.5s5.33301 -106.5 16 -148.5s23.834 -74.667 39.501 -98s35.834 -41.5 60.501 -54.5s48 -21.333 70 -25s48 -5.5 78 -5.5
c77.333 0 140 16.333 188 49l-23 54c-38 -22.667 -76.333 -35.334 -115 -38.001c-12 -1.33301 -30.5 -2 -55.5 -2s-47.833 3.5 -68.5 10.5s-40.667 19.5 -60 37.5c-40 38 -60 112.667 -60 224c0 90.667 14.333 158 43 202c12.667 19.333 29.834 34.333 51.501 45
s42.834 17.5 63.501 20.5s45.5 4.5 74.5 4.5s73.5 -6 133.5 -18l16 53c-55.333 18 -102 27 -140 27s-69 -2.16699 -93 -6.5zM281.996 -5.00098h60v-59l-42 -110l-3 -4h-44l29 114v59z" />
    <glyph glyph-name="Egrave" unicode="&#xc8;" horiz-adv-x="507" 
d="M459 0h-368v648h357l-7 -56h-283v-229h250v-56h-251v-251h302v-56zM152 827l48.001 45c25.333 -28 46.333 -48.333 63 -61c23.333 -18 43.666 -32.667 60.999 -44l20 -14c-3.33301 -4.66699 -8 -9.66699 -14 -15s-10.667 -10 -14 -14l-68 28
c-36 24.667 -68 49.667 -96 75z" />
    <glyph glyph-name="Eacute" unicode="&#xc9;" horiz-adv-x="507" 
d="M459 0h-368v648h357l-7 -56h-283v-229h250v-56h-251v-251h302v-56zM296 875l48 -45c-28 -25.333 -60 -50.333 -96 -75l-68 -28c-3.33301 4 -8 8.66699 -14 14s-10.667 10.333 -14 15l20 14c40.667 27.333 68.5 48.333 83.5 63s28.5 28.667 40.5 42z" />
    <glyph glyph-name="Ecircumflex" unicode="&#xca;" horiz-adv-x="507" 
d="M459 0h-368v648h357l-7 -56h-283v-229h250v-56h-251v-251h302v-56zM248 830l-106 -87l-28 30l104 106h60l104 -106l-29 -30z" />
    <glyph glyph-name="Edieresis" unicode="&#xcb;" horiz-adv-x="507" 
d="M459 0h-368v648h357l-7 -56h-283v-229h250v-56h-251v-251h302v-56zM159 814h72v-74h-72v74zM305 814h72v-74h-72v74z" />
    <glyph glyph-name="Igrave" unicode="&#xcc;" horiz-adv-x="248" 
d="M91 648h66v-648h-66v648zM23 827l48 45c25.333 -28 46.333 -48.333 63 -61c23.333 -18 43.333 -32.667 60 -44l21 -14c-3.33301 -4.66699 -8 -9.66699 -14 -15s-10.667 -10 -14 -14l-68 28c-36 24.667 -68 49.667 -96 75z" />
    <glyph glyph-name="Iacute" unicode="&#xcd;" horiz-adv-x="248" 
d="M91 648h66v-648h-66v648zM184 875l48 -45c-28 -25.333 -60 -50.333 -96 -75l-68 -28c-3.33301 4 -8 8.66699 -14 14s-10.667 10.333 -14 15l20 14c40.667 27.333 68.5 48.333 83.5 63s28.5 28.667 40.5 42z" />
    <glyph glyph-name="Icircumflex" unicode="&#xce;" horiz-adv-x="248" 
d="M91 648h66v-648h-66v648zM124 830l-106 -87l-28 30l104 106h60l104 -106l-29 -30z" />
    <glyph glyph-name="Idieresis" unicode="&#xcf;" horiz-adv-x="248" 
d="M91 648h66v-648h-66v648zM15 814h72v-74h-72v74zM161 814h72v-74h-72v74z" />
    <glyph glyph-name="Eth" unicode="&#xd0;" horiz-adv-x="644" 
d="M33 301l0.000976562 59.002h80v288h171c40.667 0 74.667 -2 102 -6s54.333 -12.5 81 -25.5s47.667 -30.833 63 -53.5c34 -50 51 -128 51 -234c0 -65.333 -8.66699 -123.333 -26 -174c-12 -34.667 -35 -67.334 -69 -98.001c-18.667 -17.333 -49.334 -32.333 -92.001 -45
c-24 -6.66699 -49.5 -10.334 -76.5 -11.001s-50.833 -1 -71.5 -1h-133v301h-80zM179.001 58.002l67.001 0.00195312h26c14 0 26.5 0.166992 37.5 0.5s25.5 1.16602 43.5 2.49902s31.167 3.66602 39.5 6.99902s19.166 8 32.499 14s23 13.5 29 22.5l21.5 33.5
c8.33301 13.333 14.5 29 18.5 47c9.33301 48.667 14.333 99 15 151s-2.5 94.833 -9.5 128.5s-20.167 59.667 -39.5 78s-42 30.333 -68 36s-61.667 8.5 -107 8.5h-106v-227h221v-59h-221v-243z" />
    <glyph glyph-name="Ntilde" unicode="&#xd1;" horiz-adv-x="659" 
d="M502 648h66v-648h-73l-342 547l4 -94v-453h-66v648h72l342 -545l-3 96v449zM447 752c-12.667 -10 -22 -15.5 -28 -16.5s-11.833 -1.5 -17.5 -1.5s-14.5 1.66699 -26.5 5l-85 20l-75 -32l-18 28l42 35c14 12 23.5 18.5 28.5 19.5s10 1.5 15 1.5s13.167 -1.33301 24.5 -4
l95 -22l74 35l18 -29z" />
    <glyph glyph-name="Ograve" unicode="&#xd2;" horiz-adv-x="661" 
d="M331 661c100.667 0 170.5 -23.334 209.5 -70.001s58.5 -134 58.5 -262c0 -64.667 -7.66699 -120 -23 -166s-36.666 -81 -63.999 -105c-50 -44.667 -110.333 -67 -181 -67c-96.667 0 -161.667 17.667 -195 53c-34 36.667 -56 87.334 -66 152.001
c-5.33301 37.333 -8 83.833 -8 139.5s8.33301 106.167 25 151.5s38.667 80 66 104c53.333 46.667 112.666 70 177.999 70zM312 598.999c-60.667 0 -105.833 -21.165 -135.5 -63.498s-44.5 -111.5 -44.5 -207.5c0 -90.667 11.333 -158 34 -202
c18.667 -36.667 52.667 -59.334 102 -68.001c20 -4 45.667 -6 77 -6c62.667 0 109 21.667 139 65s45 114 45 212c0 76 -7.33301 133.667 -22 173c-8.66699 23.333 -21 41.666 -37 54.999c-33.333 28 -86 42 -158 42zM235.001 827.001l48 45
c25.333 -28 46.333 -48.333 63 -61c23.333 -18 43.333 -32.667 60 -44l21 -14c-3.33301 -4.66699 -8 -9.66699 -14 -15s-10.667 -10 -14 -14l-68 28c-36 24.667 -68 49.667 -96 75z" />
    <glyph glyph-name="Oacute" unicode="&#xd3;" horiz-adv-x="661" 
d="M331 661c100.667 0 170.5 -23.334 209.5 -70.001s58.5 -134 58.5 -262c0 -64.667 -7.66699 -120 -23 -166s-36.666 -81 -63.999 -105c-50 -44.667 -110.333 -67 -181 -67c-96.667 0 -161.667 17.667 -195 53c-34 36.667 -56 87.334 -66 152.001
c-5.33301 37.333 -8 83.833 -8 139.5s8.33301 106.167 25 151.5s38.667 80 66 104c53.333 46.667 112.666 70 177.999 70zM312 598.999c-60.667 0 -105.833 -21.165 -135.5 -63.498s-44.5 -111.5 -44.5 -207.5c0 -90.667 11.333 -158 34 -202
c18.667 -36.667 52.667 -59.334 102 -68.001c20 -4 45.667 -6 77 -6c62.667 0 109 21.667 139 65s45 114 45 212c0 76 -7.33301 133.667 -22 173c-8.66699 23.333 -21 41.666 -37 54.999c-33.333 28 -86 42 -158 42zM391.001 875.001l48 -45
c-28 -25.333 -60 -50.333 -96 -75l-68 -28c-3.33301 4 -8 8.66699 -14 14s-10.667 10.333 -14 15l21 14c40 27.333 67.5 48.333 82.5 63s28.5 28.667 40.5 42z" />
    <glyph glyph-name="Ocircumflex" unicode="&#xd4;" horiz-adv-x="661" 
d="M331 661c100.667 0 170.5 -23.334 209.5 -70.001s58.5 -134 58.5 -262c0 -64.667 -7.66699 -120 -23 -166s-36.666 -81 -63.999 -105c-50 -44.667 -110.333 -67 -181 -67c-96.667 0 -161.667 17.667 -195 53c-34 36.667 -56 87.334 -66 152.001
c-5.33301 37.333 -8 83.833 -8 139.5s8.33301 106.167 25 151.5s38.667 80 66 104c53.333 46.667 112.666 70 177.999 70zM312 598.999c-60.667 0 -105.833 -21.165 -135.5 -63.498s-44.5 -111.5 -44.5 -207.5c0 -90.667 11.333 -158 34 -202
c18.667 -36.667 52.667 -59.334 102 -68.001c20 -4 45.667 -6 77 -6c62.667 0 109 21.667 139 65s45 114 45 212c0 76 -7.33301 133.667 -22 173c-8.66699 23.333 -21 41.666 -37 54.999c-33.333 28 -86 42 -158 42zM331.001 830.001l-106 -87l-28 30l104 106h60l104 -106
l-29 -30z" />
    <glyph glyph-name="Otilde" unicode="&#xd5;" horiz-adv-x="661" 
d="M331 661c100.667 0 170.5 -23.334 209.5 -70.001s58.5 -134 58.5 -262c0 -64.667 -7.66699 -120 -23 -166s-36.666 -81 -63.999 -105c-50 -44.667 -110.333 -67 -181 -67c-96.667 0 -161.667 17.667 -195 53c-34 36.667 -56 87.334 -66 152.001
c-5.33301 37.333 -8 83.833 -8 139.5s8.33301 106.167 25 151.5s38.667 80 66 104c53.333 46.667 112.666 70 177.999 70zM312 598.999c-60.667 0 -105.833 -21.165 -135.5 -63.498s-44.5 -111.5 -44.5 -207.5c0 -90.667 11.333 -158 34 -202
c18.667 -36.667 52.667 -59.334 102 -68.001c20 -4 45.667 -6 77 -6c62.667 0 109 21.667 139 65s45 114 45 212c0 76 -7.33301 133.667 -22 173c-8.66699 23.333 -21 41.666 -37 54.999c-33.333 28 -86 42 -158 42zM432.001 752.001c-12.667 -10 -22 -15.5 -28 -16.5
s-11.833 -1.5 -17.5 -1.5s-14.5 1.66699 -26.5 5l-85 20l-75 -32l-18 28l42 35c14 12 23.5 18.5 28.5 19.5s10 1.5 15 1.5s13.167 -1.33301 24.5 -4l95 -22l74 35l18 -29z" />
    <glyph glyph-name="Odieresis" unicode="&#xd6;" horiz-adv-x="661" 
d="M331 661c100.667 0 170.5 -23.334 209.5 -70.001s58.5 -134 58.5 -262c0 -64.667 -7.66699 -120 -23 -166s-36.666 -81 -63.999 -105c-50 -44.667 -110.333 -67 -181 -67c-96.667 0 -161.667 17.667 -195 53c-34 36.667 -56 87.334 -66 152.001
c-5.33301 37.333 -8 83.833 -8 139.5s8.33301 106.167 25 151.5s38.667 80 66 104c53.333 46.667 112.666 70 177.999 70zM312 598.999c-60.667 0 -105.833 -21.165 -135.5 -63.498s-44.5 -111.5 -44.5 -207.5c0 -90.667 11.333 -158 34 -202
c18.667 -36.667 52.667 -59.334 102 -68.001c20 -4 45.667 -6 77 -6c62.667 0 109 21.667 139 65s45 114 45 212c0 76 -7.33301 133.667 -22 173c-8.66699 23.333 -21 41.666 -37 54.999c-33.333 28 -86 42 -158 42zM222.001 814.001h72v-74h-72v74zM368.001 814.001h72v-74
h-72v74z" />
    <glyph glyph-name="multiply" unicode="&#xd7;" horiz-adv-x="514" 
d="M453 150l-41 -41l-155 155l-156 -157l-41 41l154 155l-153 154l41 41l153 -153l154 154l43 -39l-154 -155z" />
    <glyph glyph-name="Oslash" unicode="&#xd8;" horiz-adv-x="661" 
d="M116 -76l364 819l53 -23l-363 -819zM331 661c100.667 0 170.5 -23.334 209.5 -70.001s58.5 -134 58.5 -262c0 -64.667 -7.66699 -120 -23 -166s-36.666 -81 -63.999 -105c-50 -44.667 -110.333 -67 -181 -67c-96.667 0 -161.667 17.667 -195 53
c-34 36.667 -56 87.334 -66 152.001c-5.33301 37.333 -8 83.833 -8 139.5s8.33301 106.167 25 151.5s38.667 80 66 104c53.333 46.667 112.666 70 177.999 70zM312 598.999c-60.667 0 -105.833 -21.165 -135.5 -63.498s-44.5 -111.5 -44.5 -207.5
c0 -90.667 11.333 -158 34 -202c18.667 -36.667 52.667 -59.334 102 -68.001c20 -4 45.667 -6 77 -6c62.667 0 109 21.667 139 65s45 114 45 212c0 76 -7.33301 133.667 -22 173c-8.66699 23.333 -21 41.666 -37 54.999c-33.333 28 -86 42 -158 42z" />
    <glyph glyph-name="Ugrave" unicode="&#xd9;" horiz-adv-x="612" 
d="M310 -10l-14.001 0.000976562c-8 0 -16 0.166992 -24 0.5s-20.333 1.66602 -37 3.99902s-30.667 6 -42 11s-24.166 12.833 -38.499 23.5s-25.833 23.334 -34.5 38.001c-22 35.333 -33 81 -33 137v444h67v-444c2 -104.667 54 -157 156 -157c43.333 0 79.333 12.667 108 38
s43 63.666 43 114.999v448h65l-1 -446c0 -141.333 -71.667 -212 -215 -212zM209.999 827.001l48.001 45c25.333 -28 46.333 -48.333 63 -61c23.333 -18 43.666 -32.667 60.999 -44l20 -14c-3.33301 -4.66699 -8 -9.66699 -14 -15s-10.667 -10 -14 -14l-68 28
c-36 24.667 -68 49.667 -96 75z" />
    <glyph glyph-name="Uacute" unicode="&#xda;" horiz-adv-x="612" 
d="M310 -10l-14.001 0.000976562c-8 0 -16 0.166992 -24 0.5s-20.333 1.66602 -37 3.99902s-30.667 6 -42 11s-24.166 12.833 -38.499 23.5s-25.833 23.334 -34.5 38.001c-22 35.333 -33 81 -33 137v444h67v-444c2 -104.667 54 -157 156 -157c43.333 0 79.333 12.667 108 38
s43 63.666 43 114.999v448h65l-1 -446c0 -141.333 -71.667 -212 -215 -212zM382.999 875.001l48 -45c-28 -25.333 -60 -50.333 -96 -75l-68 -28c-3.33301 4 -8 8.66699 -14 14s-10.667 10.333 -14 15l21 14c40 27.333 67.5 48.333 82.5 63s28.5 28.667 40.5 42z" />
    <glyph glyph-name="Ucircumflex" unicode="&#xdb;" horiz-adv-x="612" 
d="M310 -10l-14.001 0.000976562c-8 0 -16 0.166992 -24 0.5s-20.333 1.66602 -37 3.99902s-30.667 6 -42 11s-24.166 12.833 -38.499 23.5s-25.833 23.334 -34.5 38.001c-22 35.333 -33 81 -33 137v444h67v-444c2 -104.667 54 -157 156 -157c43.333 0 79.333 12.667 108 38
s43 63.666 43 114.999v448h65l-1 -446c0 -141.333 -71.667 -212 -215 -212zM305.999 830.001l-106 -87l-28 30l104 106h60l104 -106l-29 -30z" />
    <glyph glyph-name="Udieresis" unicode="&#xdc;" horiz-adv-x="612" 
d="M310 -10l-14.001 0.000976562c-8 0 -16 0.166992 -24 0.5s-20.333 1.66602 -37 3.99902s-30.667 6 -42 11s-24.166 12.833 -38.499 23.5s-25.833 23.334 -34.5 38.001c-22 35.333 -33 81 -33 137v444h67v-444c2 -104.667 54 -157 156 -157c43.333 0 79.333 12.667 108 38
s43 63.666 43 114.999v448h65l-1 -446c0 -141.333 -71.667 -212 -215 -212zM196.999 814.001h72v-74h-72v74zM342.999 814.001h72v-74h-72v74z" />
    <glyph glyph-name="Yacute" unicode="&#xdd;" horiz-adv-x="538" 
d="M236 0v265l-206 383h74l165 -324l168 324h71l-205 -383l-1 -265h-66zM345 875l48 -45c-28 -25.333 -60 -50.333 -96 -75l-68 -28c-3.33301 4 -8 8.66699 -14 14s-10.667 10.333 -14 15l21 14c40 27.333 67.5 48.333 82.5 63s28.5 28.667 40.5 42z" />
    <glyph glyph-name="Thorn" unicode="&#xde;" horiz-adv-x="561" 
d="M264 52l-59.999 0.999023h-46v-254h-67v861h67v-213h123c35.333 0 65.166 -2.16699 89.499 -6.5s47.833 -13.166 70.5 -26.499c45.333 -25.333 68 -79.333 68 -162c0 -68.667 -16.333 -118.667 -49 -150c-14 -14 -32.667 -24.833 -56 -32.5s-45 -12.5 -65 -14.5
s-45 -3 -75 -3zM224.001 109.999l76 -1.00098c54 0 90.667 8.5 110 25.5s29 54.833 29 113.5s-12.167 96.334 -36.5 113.001s-68.833 25 -133.5 25h-111v-276h66z" />
    <glyph glyph-name="germandbls" unicode="&#xdf;" horiz-adv-x="611" 
d="M91 494l-1 78.0029c0 56.667 16.833 98.5 50.5 125.5s78.334 40.5 134.001 40.5s101.5 -13 137.5 -39s54 -61 54 -105c0 -52.667 -17.333 -91.334 -52 -116.001c-14.667 -10 -29.334 -19.333 -44.001 -28c-34.667 -21.333 -52 -48 -52 -80
c0 -16 8.83301 -29.167 26.5 -39.5s39 -19.333 64 -27s50 -17 75 -28s46.333 -28.5 64 -52.5s26.5 -53 26.5 -87s-10 -62 -30 -84c-37.333 -40 -90 -60 -158 -60c-53.333 0 -101.333 9 -144 27l15 49c41.333 -16 80 -24 116 -24s66.833 7.5 92.5 22.5s38.5 36.833 38.5 65.5
s-8.66699 51.667 -26 69s-38.333 30.166 -63 38.499l-73.5 24.5c-24.333 8 -45.166 20.333 -62.499 37s-26 38.167 -26 64.5s5 48.666 15 66.999s22.167 32.666 36.5 42.999s28.5 19.833 42.5 28.5c34 22 51 48.333 51 79s-11.833 55.834 -35.5 75.501
s-53.667 29.5 -90 29.5s-65.333 -9.33301 -87 -28s-32.5 -48 -32.5 -88v-646l-35 -124l-3 -3h-46l22 127v512c0 3.33301 -4.33301 5 -13 5h-34l1 29c27.333 12.667 42.666 19.667 45.999 21v1z" />
    <glyph glyph-name="agrave" unicode="&#xe0;" horiz-adv-x="486" 
d="M408 299l-1.00098 -119c0 -18.667 0.333008 -36 1 -52l22 -122l1 -5h-44l-4 3l-24 58c-62 -42.667 -123 -65 -183 -67c-42 0 -74.167 11.167 -96.5 33.5s-33.5 53.833 -33.5 94.5c0 56 15.667 94 47 114s74.333 30 129 30c6.66699 0 47 -2 121 -6v65
c0 44 -8.16699 74.5 -24.5 91.5s-39.166 25.5 -68.499 25.5s-86 -9 -170 -27l-9 48c82.667 24.667 142 37 178 37c54.667 0 98 -17 130 -51c19.333 -20.667 29 -71 29 -151zM342.999 211l-105 4.00195c-53.333 0 -88 -5.33301 -104 -16s-24 -31.834 -24 -63.501
s5.33301 -53.334 16 -65.001s29.167 -17.5 55.5 -17.5s57.333 5.33301 93 16s58.5 23 68.5 37v105zM142.999 671.002l48 45c25.333 -28 46.333 -48.333 63 -61c23.333 -18 43.333 -32.667 60 -44l21 -14c-3.33301 -4.66699 -8 -9.66699 -14 -15s-10.667 -10 -14 -14l-68 28
c-36 24.667 -68 49.667 -96 75z" />
    <glyph glyph-name="aacute" unicode="&#xe1;" horiz-adv-x="486" 
d="M408 299l-1.00098 -119c0 -18.667 0.333008 -36 1 -52l22 -122l1 -5h-44l-4 3l-24 58c-62 -42.667 -123 -65 -183 -67c-42 0 -74.167 11.167 -96.5 33.5s-33.5 53.833 -33.5 94.5c0 56 15.667 94 47 114s74.333 30 129 30c6.66699 0 47 -2 121 -6v65
c0 44 -8.16699 74.5 -24.5 91.5s-39.166 25.5 -68.499 25.5s-86 -9 -170 -27l-9 48c82.667 24.667 142 37 178 37c54.667 0 98 -17 130 -51c19.333 -20.667 29 -71 29 -151zM342.999 211l-105 4.00195c-53.333 0 -88 -5.33301 -104 -16s-24 -31.834 -24 -63.501
s5.33301 -53.334 16 -65.001s29.167 -17.5 55.5 -17.5s57.333 5.33301 93 16s58.5 23 68.5 37v105zM286.999 719.002l48 -45c-28 -25.333 -60 -50.333 -96 -75l-68 -28c-3.33301 4 -8 8.66699 -14 14s-10.667 10.333 -14 15l21 14c40 27.333 67.5 48.333 82.5 63
s28.5 28.667 40.5 42z" />
    <glyph glyph-name="acircumflex" unicode="&#xe2;" horiz-adv-x="486" 
d="M408 299l-1.00098 -119c0 -18.667 0.333008 -36 1 -52l22 -122l1 -5h-44l-4 3l-24 58c-62 -42.667 -123 -65 -183 -67c-42 0 -74.167 11.167 -96.5 33.5s-33.5 53.833 -33.5 94.5c0 56 15.667 94 47 114s74.333 30 129 30c6.66699 0 47 -2 121 -6v65
c0 44 -8.16699 74.5 -24.5 91.5s-39.166 25.5 -68.499 25.5s-86 -9 -170 -27l-9 48c82.667 24.667 142 37 178 37c54.667 0 98 -17 130 -51c19.333 -20.667 29 -71 29 -151zM342.999 211l-105 4.00195c-53.333 0 -88 -5.33301 -104 -16s-24 -31.834 -24 -63.501
s5.33301 -53.334 16 -65.001s29.167 -17.5 55.5 -17.5s57.333 5.33301 93 16s58.5 23 68.5 37v105zM238.999 674.002l-106 -87l-28 30l104 106h60l104 -106l-29 -30z" />
    <glyph glyph-name="atilde" unicode="&#xe3;" horiz-adv-x="486" 
d="M408 299l-1.00098 -119c0 -18.667 0.333008 -36 1 -52l22 -122l1 -5h-44l-4 3l-24 58c-62 -42.667 -123 -65 -183 -67c-42 0 -74.167 11.167 -96.5 33.5s-33.5 53.833 -33.5 94.5c0 56 15.667 94 47 114s74.333 30 129 30c6.66699 0 47 -2 121 -6v65
c0 44 -8.16699 74.5 -24.5 91.5s-39.166 25.5 -68.499 25.5s-86 -9 -170 -27l-9 48c82.667 24.667 142 37 178 37c54.667 0 98 -17 130 -51c19.333 -20.667 29 -71 29 -151zM342.999 211l-105 4.00195c-53.333 0 -88 -5.33301 -104 -16s-24 -31.834 -24 -63.501
s5.33301 -53.334 16 -65.001s29.167 -17.5 55.5 -17.5s57.333 5.33301 93 16s58.5 23 68.5 37v105zM339.999 596.002c-12.667 -10 -22 -15.5 -28 -16.5s-11.833 -1.5 -17.5 -1.5s-14.5 1.66699 -26.5 5l-85 20l-75 -32l-18 28l42 35c14 12 23.5 18.5 28.5 19.5
s10 1.5 15 1.5s13.167 -1.33301 24.5 -4l95 -22l74 35l18 -29z" />
    <glyph glyph-name="adieresis" unicode="&#xe4;" horiz-adv-x="486" 
d="M408 299l-1.00098 -119c0 -18.667 0.333008 -36 1 -52l22 -122l1 -5h-44l-4 3l-24 58c-62 -42.667 -123 -65 -183 -67c-42 0 -74.167 11.167 -96.5 33.5s-33.5 53.833 -33.5 94.5c0 56 15.667 94 47 114s74.333 30 129 30c6.66699 0 47 -2 121 -6v65
c0 44 -8.16699 74.5 -24.5 91.5s-39.166 25.5 -68.499 25.5s-86 -9 -170 -27l-9 48c82.667 24.667 142 37 178 37c54.667 0 98 -17 130 -51c19.333 -20.667 29 -71 29 -151zM342.999 211l-105 4.00195c-53.333 0 -88 -5.33301 -104 -16s-24 -31.834 -24 -63.501
s5.33301 -53.334 16 -65.001s29.167 -17.5 55.5 -17.5s57.333 5.33301 93 16s58.5 23 68.5 37v105zM131.999 658.002h72v-74h-72v74zM277.999 658.002h72v-74h-72v74z" />
    <glyph glyph-name="aring" unicode="&#xe5;" horiz-adv-x="486" 
d="M408 299l-1.00098 -119c0 -18.667 0.333008 -36 1 -52l22 -122l1 -5h-44l-4 3l-24 58c-62 -42.667 -123 -65 -183 -67c-42 0 -74.167 11.167 -96.5 33.5s-33.5 53.833 -33.5 94.5c0 56 15.667 94 47 114s74.333 30 129 30c6.66699 0 47 -2 121 -6v65
c0 44 -8.16699 74.5 -24.5 91.5s-39.166 25.5 -68.499 25.5s-86 -9 -170 -27l-9 48c82.667 24.667 142 37 178 37c54.667 0 98 -17 130 -51c19.333 -20.667 29 -71 29 -151zM342.999 211l-105 4.00195c-53.333 0 -88 -5.33301 -104 -16s-24 -31.834 -24 -63.501
s5.33301 -53.334 16 -65.001s29.167 -17.5 55.5 -17.5s57.333 5.33301 93 16s58.5 23 68.5 37v105zM335.999 670.002c0 -26.667 -8.50195 -49.667 -25.502 -69s-41.167 -29 -72.5 -29s-55.166 9.33301 -71.499 28s-24.5 41.5 -24.5 68.5s8.33301 49.833 25 68.5
s40.834 28 72.501 28s55.667 -9.16699 72 -27.5s24.5 -40.833 24.5 -67.5zM281.997 625.502c10 13 15.001 27.6689 15.001 44.002s-4.83301 30.666 -14.5 42.999s-24 18.5 -43 18.5s-33.5 -6.16699 -43.5 -18.5s-15 -26.833 -15 -43.5s4.66699 -31.334 14 -44.001
s23.666 -19 42.999 -19s34 6.5 44 19.5z" />
    <glyph glyph-name="ae" unicode="&#xe6;" horiz-adv-x="781" 
d="M408 299l-1.00293 -118.998c0 -18.667 0.333008 -36 1 -52l1 -28c-8.66699 -8.66699 -22.5 -19.834 -41.5 -33.501s-36.833 -25.167 -53.5 -34.5c-45.333 -23.333 -90.166 -35.333 -134.499 -36s-77.666 10.166 -99.999 32.499s-33.5 53.833 -33.5 94.5
c0 56 15.667 94 47 114s74.333 30 129 30c6.66699 0 47 -2 121 -6v65c0 44 -8.16699 74.5 -24.5 91.5s-39.166 25.5 -68.499 25.5s-86 -9 -170 -27l-9 48c82.667 24.667 142 37 178 37c54.667 0 98 -17 130 -51c19.333 -20.667 29 -71 29 -151zM342.997 211.002
l-105.001 4.00195c-53.333 0 -88 -5.33301 -104 -16s-24 -31.834 -24 -63.501s5.33301 -53.334 16 -65.001s31.667 -17.5 63 -17.5s62.833 6.16699 94.5 18.5s53.834 24.5 66.501 36.5l19 19zM728.996 321.004c0 -24 -2.00293 -49.001 -6.00293 -75.001h-314
c2.66699 -73.333 15 -123.833 37 -151.5s61 -41.5 117 -41.5c42 0 91 9 147 27l6 -50c-15.333 -6 -27.166 -10.167 -35.499 -12.5s-17.166 -5 -26.499 -8s-16.333 -5.16699 -21 -6.5s-11.334 -3 -20.001 -5s-16 -3.33301 -22 -4c-18 -2 -33.333 -3 -46 -3
c-62.667 0 -112 22 -148 66s-54 105.333 -54 184c0 43.333 5.33301 81.5 16 114.5s23.334 58.333 38.001 76s32.334 31.834 53.001 42.501c30.667 16.667 64 25.667 100 27c119.333 -0.666992 179 -60.667 179 -180zM665.993 337.003c0 40 -10.001 68.001 -30.001 84.001
s-49.667 24 -89 24s-71.666 -10.5 -96.999 -31.5s-38.333 -59.833 -39 -116.5h252c2 15.333 3 28.666 3 39.999z" />
    <glyph glyph-name="ccedilla" unicode="&#xe7;" horiz-adv-x="451" 
d="M211 490c-24 -7.33301 -48.5 -19.667 -73.5 -37s-45.167 -43.833 -60.5 -79.5s-23 -78.5 -23 -128.5c0 -106.667 23.333 -177.334 70 -212.001c22 -16.667 44.167 -28 66.5 -34s48.5 -9 78.5 -9c58 0 108.667 15.667 152 47l-27 42c-38.667 -24 -75 -36 -109 -36
c-109.333 0 -164 67.333 -164 202c0 76.667 15 129.834 45 159.501s73.667 44.5 131 44.5c22 0 51.333 -3.66699 88 -11l8 44c-36.667 12.667 -70.167 19 -100.5 19s-57.5 -3.66699 -81.5 -11zM218 -5.00098h60v-59l-42 -110l-3 -4h-44l29 114v59z" />
    <glyph glyph-name="egrave" unicode="&#xe8;" horiz-adv-x="492" 
d="M440 321c0 -24 -2.00293 -49.001 -6.00293 -75.001h-314c2.66699 -73.333 15 -123.833 37 -151.5s61 -41.5 117 -41.5c42 0 91 9 147 27l6 -50c-15.333 -6 -27.166 -10.167 -35.499 -12.5s-17.166 -5 -26.499 -8s-16.333 -5.16699 -21 -6.5s-11.334 -3 -20.001 -5
s-16 -3.33301 -22 -4c-18 -2 -33.333 -3 -46 -3c-62.667 0 -112 22 -148 66s-54 105.333 -54 184c0 43.333 5.33301 81.5 16 114.5s23.334 58.333 38.001 76s32.334 31.834 53.001 42.501c30.667 16.667 64 25.667 100 27c119.333 -0.666992 179 -60.667 179 -180z
M376.997 336.999c0 40 -10.001 68.001 -30.001 84.001s-49.667 24 -89 24s-71.666 -10.5 -96.999 -31.5s-38.333 -59.833 -39 -116.5h252c2 15.333 3 28.666 3 39.999zM157.996 671l48.001 45c25.333 -28 46.333 -48.333 63 -61c23.333 -18 43.666 -32.667 60.999 -44
l20 -14c-3.33301 -4.66699 -8 -9.66699 -14 -15s-10.667 -10 -14 -14l-68 28c-36 24.667 -68 49.667 -96 75z" />
    <glyph glyph-name="eacute" unicode="&#xe9;" horiz-adv-x="492" 
d="M440 321c0 -24 -2.00293 -49.001 -6.00293 -75.001h-314c2.66699 -73.333 15 -123.833 37 -151.5s61 -41.5 117 -41.5c42 0 91 9 147 27l6 -50c-15.333 -6 -27.166 -10.167 -35.499 -12.5s-17.166 -5 -26.499 -8s-16.333 -5.16699 -21 -6.5s-11.334 -3 -20.001 -5
s-16 -3.33301 -22 -4c-18 -2 -33.333 -3 -46 -3c-62.667 0 -112 22 -148 66s-54 105.333 -54 184c0 43.333 5.33301 81.5 16 114.5s23.334 58.333 38.001 76s32.334 31.834 53.001 42.501c30.667 16.667 64 25.667 100 27c119.333 -0.666992 179 -60.667 179 -180z
M376.997 336.999c0 40 -10.001 68.001 -30.001 84.001s-49.667 24 -89 24s-71.666 -10.5 -96.999 -31.5s-38.333 -59.833 -39 -116.5h252c2 15.333 3 28.666 3 39.999zM324.996 719l48 -45c-28 -25.333 -60 -50.333 -96 -75l-68 -28c-3.33301 4 -8 8.66699 -14 14
s-10.667 10.333 -14 15l21 14c40 27.333 67.5 48.333 82.5 63s28.5 28.667 40.5 42z" />
    <glyph glyph-name="ecircumflex" unicode="&#xea;" horiz-adv-x="492" 
d="M440 321c0 -24 -2.00293 -49.001 -6.00293 -75.001h-314c2.66699 -73.333 15 -123.833 37 -151.5s61 -41.5 117 -41.5c42 0 91 9 147 27l6 -50c-15.333 -6 -27.166 -10.167 -35.499 -12.5s-17.166 -5 -26.499 -8s-16.333 -5.16699 -21 -6.5s-11.334 -3 -20.001 -5
s-16 -3.33301 -22 -4c-18 -2 -33.333 -3 -46 -3c-62.667 0 -112 22 -148 66s-54 105.333 -54 184c0 43.333 5.33301 81.5 16 114.5s23.334 58.333 38.001 76s32.334 31.834 53.001 42.501c30.667 16.667 64 25.667 100 27c119.333 -0.666992 179 -60.667 179 -180z
M376.997 336.999c0 40 -10.001 68.001 -30.001 84.001s-49.667 24 -89 24s-71.666 -10.5 -96.999 -31.5s-38.333 -59.833 -39 -116.5h252c2 15.333 3 28.666 3 39.999zM253.996 674l-106 -87l-28 30l104 106h60l104 -106l-29 -30z" />
    <glyph glyph-name="edieresis" unicode="&#xeb;" horiz-adv-x="492" 
d="M440 321c0 -24 -2.00293 -49.001 -6.00293 -75.001h-314c2.66699 -73.333 15 -123.833 37 -151.5s61 -41.5 117 -41.5c42 0 91 9 147 27l6 -50c-15.333 -6 -27.166 -10.167 -35.499 -12.5s-17.166 -5 -26.499 -8s-16.333 -5.16699 -21 -6.5s-11.334 -3 -20.001 -5
s-16 -3.33301 -22 -4c-18 -2 -33.333 -3 -46 -3c-62.667 0 -112 22 -148 66s-54 105.333 -54 184c0 43.333 5.33301 81.5 16 114.5s23.334 58.333 38.001 76s32.334 31.834 53.001 42.501c30.667 16.667 64 25.667 100 27c119.333 -0.666992 179 -60.667 179 -180z
M376.997 336.999c0 40 -10.001 68.001 -30.001 84.001s-49.667 24 -89 24s-71.666 -10.5 -96.999 -31.5s-38.333 -59.833 -39 -116.5h252c2 15.333 3 28.666 3 39.999zM145.996 658h72v-74h-72v74zM291.996 658h72v-74h-72v74z" />
    <glyph glyph-name="igrave" unicode="&#xec;" horiz-adv-x="218" 
d="M78 492h62v-492h-62v492zM11 671l48 45c25.333 -28 46.333 -48.333 63 -61c23.333 -18 43.333 -32.667 60 -44l21 -14c-3.33301 -4.66699 -8 -9.66699 -14 -15s-10.667 -10 -14 -14l-68 28c-36 24.667 -68 49.667 -96 75z" />
    <glyph glyph-name="iacute" unicode="&#xed;" horiz-adv-x="221" 
d="M78 493h65v-492h-65v492zM197 710l49 -45.999c-28 -24.667 -60.333 -49.334 -97 -74.001l-68 -28c-3.33301 4.66699 -8 9.66699 -14 15s-10.667 10 -14 14c0.666992 0.666992 5.66699 4 15 10s15.333 10 18 12s8.5 6 17.5 12s16.167 11.333 21.5 16l21 18
c11.333 9.33301 28.333 26.333 51 51z" />
    <glyph glyph-name="icircumflex" unicode="&#xee;" horiz-adv-x="221" 
d="M78 493h65v-492h-65v492zM111 674l-106 -87l-28 30l104 106h60l104 -106l-29 -30z" />
    <glyph glyph-name="idieresis" unicode="&#xef;" horiz-adv-x="221" 
d="M78 493h65v-492h-65v492zM9 658h72v-74h-72v74zM155 658h72v-74h-72v74z" />
    <glyph glyph-name="eth" unicode="&#xf0;" horiz-adv-x="518" 
d="M434 123.5c-10 -38.333 -22.002 -65.5039 -36.002 -81.5039c-31.333 -33.333 -80.166 -50 -146.499 -50s-115.5 21.167 -147.5 63.5s-48 97.833 -48 166.5s14.333 122.334 43 161.001s64.834 58 108.501 58s99.5 -9.66699 167.5 -29c-4 55.333 -12.667 97.5 -26 126.5
s-34.333 53.5 -63 73.5l-70 -74l-39 37l60 65l-122 55l20 46l131 -46c2 -1.33301 7.33301 -3.66602 16 -6.99902l57 60l39 -37l-47 -50c41.333 -28.667 71.333 -69.167 90 -121.5s28 -125.166 28 -218.499s-5 -159.166 -15 -197.499zM378.998 215.996l-0.999023 105.999v33
c-68 17.333 -119 26 -153 26c-70 0 -105 -55 -105 -165c0 -56 9 -97.333 27 -124s47.333 -40 88 -40c61.333 0 101 15.667 119 47c7.33301 12 12.666 22.333 15.999 31c6 16.667 9 45.334 9 86.001z" />
    <glyph glyph-name="ntilde" unicode="&#xf1;" horiz-adv-x="525" 
d="M450 1h-66v351c-0.666992 32.667 -9.66699 56 -27 70s-42.166 21 -74.499 21s-62 -6.33301 -89 -19s-42.833 -24.667 -47.5 -36v-387h-66v364l-17 122h45l3 -2l19 -51c23.333 16 42 28 56 36c37.333 22 77.666 33 120.999 33c93.333 0 141 -50.333 143 -151v-351z
M361 597c-12.667 -10 -22 -15.5 -28 -16.5s-11.833 -1.5 -17.5 -1.5s-14.5 1.66699 -26.5 5l-85 20l-75 -32l-18 28l42 35c14 12 23.5 18.5 28.5 19.5s10 1.5 15 1.5s13.167 -1.33301 24.5 -4l95 -22l74 35l18 -29z" />
    <glyph glyph-name="ograve" unicode="&#xf2;" horiz-adv-x="526" 
d="M312.5 439c-14.333 3.33301 -34.1641 5 -59.4971 5s-47.5 -4.16699 -66.5 -12.5s-33 -22.333 -42 -42s-14.833 -39.667 -17.5 -60s-4 -48.166 -4 -83.499c0 -75.333 8.5 -127.333 25.5 -156s54.5 -43 112.5 -43c31.333 0 56.666 4 75.999 12s33.666 21.5 42.999 40.5
s15.333 39 18 60s4 46 4 75s-0.166992 49.667 -0.5 62s-1.5 26.666 -3.5 42.999s-4.83301 28.833 -8.5 37.5s-8.83398 18 -15.501 28s-15 17.333 -25 22s-22.167 8.66699 -36.5 12zM385.002 479.5c28.667 -13.667 49.999 -38.833 63.999 -75.5s21 -84 21 -142
s-6.16699 -104.333 -18.5 -139s-28.833 -61.334 -49.5 -80.001c-40 -36 -86.667 -54 -140 -54c-78 0 -132 18.333 -162 55s-45 103.667 -45 201c0 46.667 6.33301 87.334 19 122.001s29.667 61 51 79c41.333 36 87.833 54 139.5 54s91.834 -6.83301 120.501 -20.5z
M158.001 671.001l48.001 45c25.333 -28 46.333 -48.333 63 -61c23.333 -18 43.666 -32.667 60.999 -44l20 -14c-3.33301 -4.66699 -8 -9.66699 -14 -15s-10.667 -10 -14 -14l-68 28c-36 24.667 -68 49.667 -96 75z" />
    <glyph glyph-name="oacute" unicode="&#xf3;" horiz-adv-x="526" 
d="M312.5 439c-14.333 3.33301 -34.1641 5 -59.4971 5s-47.5 -4.16699 -66.5 -12.5s-33 -22.333 -42 -42s-14.833 -39.667 -17.5 -60s-4 -48.166 -4 -83.499c0 -75.333 8.5 -127.333 25.5 -156s54.5 -43 112.5 -43c31.333 0 56.666 4 75.999 12s33.666 21.5 42.999 40.5
s15.333 39 18 60s4 46 4 75s-0.166992 49.667 -0.5 62s-1.5 26.666 -3.5 42.999s-4.83301 28.833 -8.5 37.5s-8.83398 18 -15.501 28s-15 17.333 -25 22s-22.167 8.66699 -36.5 12zM385.002 479.5c28.667 -13.667 49.999 -38.833 63.999 -75.5s21 -84 21 -142
s-6.16699 -104.333 -18.5 -139s-28.833 -61.334 -49.5 -80.001c-40 -36 -86.667 -54 -140 -54c-78 0 -132 18.333 -162 55s-45 103.667 -45 201c0 46.667 6.33301 87.334 19 122.001s29.667 61 51 79c41.333 36 87.833 54 139.5 54s91.834 -6.83301 120.501 -20.5z
M320.001 719.001l48 -45c-28 -25.333 -60 -50.333 -96 -75l-68 -28c-3.33301 4 -8 8.66699 -14 14s-10.667 10.333 -14 15l20 14c40.667 27.333 68.5 48.333 83.5 63s28.5 28.667 40.5 42z" />
    <glyph glyph-name="ocircumflex" unicode="&#xf4;" horiz-adv-x="526" 
d="M312.5 439c-14.333 3.33301 -34.1641 5 -59.4971 5s-47.5 -4.16699 -66.5 -12.5s-33 -22.333 -42 -42s-14.833 -39.667 -17.5 -60s-4 -48.166 -4 -83.499c0 -75.333 8.5 -127.333 25.5 -156s54.5 -43 112.5 -43c31.333 0 56.666 4 75.999 12s33.666 21.5 42.999 40.5
s15.333 39 18 60s4 46 4 75s-0.166992 49.667 -0.5 62s-1.5 26.666 -3.5 42.999s-4.83301 28.833 -8.5 37.5s-8.83398 18 -15.501 28s-15 17.333 -25 22s-22.167 8.66699 -36.5 12zM385.002 479.5c28.667 -13.667 49.999 -38.833 63.999 -75.5s21 -84 21 -142
s-6.16699 -104.333 -18.5 -139s-28.833 -61.334 -49.5 -80.001c-40 -36 -86.667 -54 -140 -54c-78 0 -132 18.333 -162 55s-45 103.667 -45 201c0 46.667 6.33301 87.334 19 122.001s29.667 61 51 79c41.333 36 87.833 54 139.5 54s91.834 -6.83301 120.501 -20.5z
M254.001 674.001l-106 -87l-28 30l104 106h60l104 -106l-29 -30z" />
    <glyph glyph-name="otilde" unicode="&#xf5;" horiz-adv-x="526" 
d="M312.5 439c-14.333 3.33301 -34.1641 5 -59.4971 5s-47.5 -4.16699 -66.5 -12.5s-33 -22.333 -42 -42s-14.833 -39.667 -17.5 -60s-4 -48.166 -4 -83.499c0 -75.333 8.5 -127.333 25.5 -156s54.5 -43 112.5 -43c31.333 0 56.666 4 75.999 12s33.666 21.5 42.999 40.5
s15.333 39 18 60s4 46 4 75s-0.166992 49.667 -0.5 62s-1.5 26.666 -3.5 42.999s-4.83301 28.833 -8.5 37.5s-8.83398 18 -15.501 28s-15 17.333 -25 22s-22.167 8.66699 -36.5 12zM385.002 479.5c28.667 -13.667 49.999 -38.833 63.999 -75.5s21 -84 21 -142
s-6.16699 -104.333 -18.5 -139s-28.833 -61.334 -49.5 -80.001c-40 -36 -86.667 -54 -140 -54c-78 0 -132 18.333 -162 55s-45 103.667 -45 201c0 46.667 6.33301 87.334 19 122.001s29.667 61 51 79c41.333 36 87.833 54 139.5 54s91.834 -6.83301 120.501 -20.5z
M356.001 596.001c-12.667 -10 -22 -15.5 -28 -16.5s-11.833 -1.5 -17.5 -1.5s-14.5 1.66699 -26.5 5l-85 20l-75 -32l-18 28l42 35c14 12 23.5 18.5 28.5 19.5s10 1.5 15 1.5s13.167 -1.33301 24.5 -4l95 -22l74 35l18 -29z" />
    <glyph glyph-name="odieresis" unicode="&#xf6;" horiz-adv-x="526" 
d="M312.5 439c-14.333 3.33301 -34.1641 5 -59.4971 5s-47.5 -4.16699 -66.5 -12.5s-33 -22.333 -42 -42s-14.833 -39.667 -17.5 -60s-4 -48.166 -4 -83.499c0 -75.333 8.5 -127.333 25.5 -156s54.5 -43 112.5 -43c31.333 0 56.666 4 75.999 12s33.666 21.5 42.999 40.5
s15.333 39 18 60s4 46 4 75s-0.166992 49.667 -0.5 62s-1.5 26.666 -3.5 42.999s-4.83301 28.833 -8.5 37.5s-8.83398 18 -15.501 28s-15 17.333 -25 22s-22.167 8.66699 -36.5 12zM385.002 479.5c28.667 -13.667 49.999 -38.833 63.999 -75.5s21 -84 21 -142
s-6.16699 -104.333 -18.5 -139s-28.833 -61.334 -49.5 -80.001c-40 -36 -86.667 -54 -140 -54c-78 0 -132 18.333 -162 55s-45 103.667 -45 201c0 46.667 6.33301 87.334 19 122.001s29.667 61 51 79c41.333 36 87.833 54 139.5 54s91.834 -6.83301 120.501 -20.5z
M146.001 658.001h72v-74h-72v74zM292.001 658.001h72v-74h-72v74z" />
    <glyph glyph-name="divide" unicode="&#xf7;" horiz-adv-x="527" 
d="M67 269v59h393v-59h-393zM306 501v-91h-85l1 91h84zM306 186v-91h-85l1 91h84z" />
    <glyph glyph-name="oslash" unicode="&#xf8;" horiz-adv-x="526" 
d="M104 -51l271 607l53 -23l-270 -607zM312.5 439c-14.333 3.33301 -34.1641 5 -59.4971 5s-47.5 -4.16699 -66.5 -12.5s-33 -22.333 -42 -42s-14.833 -39.667 -17.5 -60s-4 -48.166 -4 -83.499c0 -75.333 8.5 -127.333 25.5 -156s54.5 -43 112.5 -43
c31.333 0 56.666 4 75.999 12s33.666 21.5 42.999 40.5s15.333 39 18 60s4 46 4 75s-0.166992 49.667 -0.5 62s-1.5 26.666 -3.5 42.999s-4.83301 28.833 -8.5 37.5s-8.83398 18 -15.501 28s-15 17.333 -25 22s-22.167 8.66699 -36.5 12zM385.002 479.5
c28.667 -13.667 49.999 -38.833 63.999 -75.5s21 -84 21 -142s-6.16699 -104.333 -18.5 -139s-28.833 -61.334 -49.5 -80.001c-40 -36 -86.667 -54 -140 -54c-78 0 -132 18.333 -162 55s-45 103.667 -45 201c0 46.667 6.33301 87.334 19 122.001s29.667 61 51 79
c41.333 36 87.833 54 139.5 54s91.834 -6.83301 120.501 -20.5z" />
    <glyph glyph-name="ugrave" unicode="&#xf9;" horiz-adv-x="524" 
d="M75 492l64.9961 -0.000976562v-351c0.666992 -33.333 9.83398 -56.666 27.501 -69.999s43.334 -20 77.001 -20s63.334 6.33301 89.001 19s40.834 24.667 45.501 36v386h64v-363l18 -129h-42l-3 3l-21 56c-26 -17.333 -44.667 -29.5 -56 -36.5s-27.833 -14 -49.5 -21
s-44.5 -10.5 -68.5 -10.5c-95.333 0 -144 50.333 -146 151v350zM172.996 670.999l48 45c25.333 -28 46.333 -48.333 63 -61c23.333 -18 43.333 -32.667 60 -44l21 -14c-3.33301 -4.66699 -8 -9.66699 -14 -15s-10.667 -10 -14 -14l-68 28c-36 24.667 -68 49.667 -96 75z" />
    <glyph glyph-name="uacute" unicode="&#xfa;" horiz-adv-x="524" 
d="M75 492l64.9961 -0.000976562v-351c0.666992 -33.333 9.83398 -56.666 27.501 -69.999s43.334 -20 77.001 -20s63.334 6.33301 89.001 19s40.834 24.667 45.501 36v386h64v-363l18 -129h-42l-3 3l-21 56c-26 -17.333 -44.667 -29.5 -56 -36.5s-27.833 -14 -49.5 -21
s-44.5 -10.5 -68.5 -10.5c-95.333 0 -144 50.333 -146 151v350zM347.996 718.999l48 -45c-28 -25.333 -60 -50.333 -96 -75l-68 -28c-3.33301 4 -8 8.66699 -14 14s-10.667 10.333 -14 15l20 14c40.667 27.333 68.5 48.333 83.5 63s28.5 28.667 40.5 42z" />
    <glyph glyph-name="ucircumflex" unicode="&#xfb;" horiz-adv-x="524" 
d="M75 492l64.9961 -0.000976562v-351c0.666992 -33.333 9.83398 -56.666 27.501 -69.999s43.334 -20 77.001 -20s63.334 6.33301 89.001 19s40.834 24.667 45.501 36v386h64v-363l18 -129h-42l-3 3l-21 56c-26 -17.333 -44.667 -29.5 -56 -36.5s-27.833 -14 -49.5 -21
s-44.5 -10.5 -68.5 -10.5c-95.333 0 -144 50.333 -146 151v350zM268.996 673.999l-106 -87l-28 30l104 106h60l104 -106l-29 -30z" />
    <glyph glyph-name="udieresis" unicode="&#xfc;" horiz-adv-x="524" 
d="M75 492l64.9961 -0.000976562v-351c0.666992 -33.333 9.83398 -56.666 27.501 -69.999s43.334 -20 77.001 -20s63.334 6.33301 89.001 19s40.834 24.667 45.501 36v386h64v-363l18 -129h-42l-3 3l-21 56c-26 -17.333 -44.667 -29.5 -56 -36.5s-27.833 -14 -49.5 -21
s-44.5 -10.5 -68.5 -10.5c-95.333 0 -144 50.333 -146 151v350zM153.996 657.999h72v-74h-72v74zM299.996 657.999h72v-74h-72v74z" />
    <glyph glyph-name="yacute" unicode="&#xfd;" horiz-adv-x="497" 
d="M19 -144c24 -6.66699 44.333 -9.99902 61 -9.99902c52.667 1.33301 88 25.666 106 72.999l30 80l-191 493h72l152 -422l149 422h70l-220 -593c-27.333 -67.333 -77.333 -101 -150 -101c-30.667 0 -64.667 6 -102 18zM304 719.001l48 -45c-28 -25.333 -60 -50.333 -96 -75
l-68 -28c-3.33301 4 -8 8.66699 -14 14s-10.667 10.333 -14 15l20 14c40.667 27.333 68.5 48.333 83.5 63s28.5 28.667 40.5 42z" />
    <glyph glyph-name="thorn" unicode="&#xfe;" horiz-adv-x="512" 
d="M78 -201v937h62v-289c40 35.333 81.167 53 123.5 53s76.333 -6.16699 102 -18.5s44.834 -30.833 57.501 -55.5c22.667 -43.333 34 -101.333 34 -174c0 -46 -5.66699 -86.333 -17 -121s-24.833 -60.667 -40.5 -78s-33.5 -31.333 -53.5 -42
c-28.667 -15.333 -59.834 -23 -93.501 -23s-71.167 8.33301 -112.5 25v-214h-62zM140 67c37.333 -13.333 72.667 -20.001 106 -20.001s58.666 4.16699 75.999 12.5s30.333 17.833 39 28.5s15 26 19 46c6 26.667 9 61.334 9 104.001c0 79.333 -6.66699 133 -20 161
s-46.666 42 -99.999 42s-96.333 -18.667 -129 -56v-318z" />
    <glyph glyph-name="ydieresis" unicode="&#xff;" horiz-adv-x="497" 
d="M19 -144c24 -6.66699 44.333 -9.99902 61 -9.99902c52.667 1.33301 88 25.666 106 72.999l30 80l-191 493h72l152 -422l149 422h70l-220 -593c-27.333 -67.333 -77.333 -101 -150 -101c-30.667 0 -64.667 6 -102 18zM134 658.001h72v-74h-72v74zM280 658.001h72v-74h-72
v74z" />
    <glyph glyph-name="dotlessi" unicode="&#x131;" horiz-adv-x="218" 
d="M78 492h62v-492h-62v492z" />
    <glyph glyph-name="Lslash" unicode="&#x141;" horiz-adv-x="494" 
d="M31 284v59h86v305h66l-1 -305h131v-59h-131v-228h288v-56h-352v1h-1v283h-86z" />
    <glyph glyph-name="lslash" unicode="&#x142;" horiz-adv-x="343" 
d="M30 284v59h97v393h62v-393h123v-59h-123v-165l25 -128h-46l-4 4l-37 124v165h-97z" />
    <glyph glyph-name="OE" unicode="&#x152;" horiz-adv-x="809" 
d="M761 0l-450.001 -0.000976562c-34.667 0 -63.167 1.66699 -85.5 5s-44.833 11.333 -67.5 24s-40.167 30.667 -52.5 54s-22.5 55.166 -30.5 95.499s-12 89.833 -12 148.5s7.33301 109.834 22 153.501s34.334 77.167 59.001 100.5c47.333 44.667 102.666 67 165.999 67h440
l-7 -56h-252c41.333 -43.333 63 -119.666 65 -228.999h164v-56h-163c-3.33301 -114 -33.666 -197.667 -90.999 -251h295v-56zM291.999 588.999c-57.333 0 -98.498 -20 -123.498 -60s-37.5 -107.333 -37.5 -202c0 -58.667 3.33301 -105.667 10 -141s18.5 -62.333 35.5 -81
s36.5 -31 58.5 -37s51.667 -9 89 -9c59.333 0 101.666 20.667 126.999 62s38 110.333 38 207c0 102 -10 167.667 -30 197c-20.667 30.667 -50.334 49.667 -89.001 57c-22 4.66699 -48 7 -78 7z" />
    <glyph glyph-name="oe" unicode="&#x153;" horiz-adv-x="842" 
d="M790 321c0 -24 -2.00098 -49.002 -6.00098 -75.002h-314c2.66699 -73.333 15 -123.833 37 -151.5s61 -41.5 117 -41.5c42 0 91 9 147 27l6 -50c-15.333 -6 -27.166 -10.167 -35.499 -12.5s-17.166 -5 -26.499 -8s-16.333 -5.16699 -21 -6.5s-11.334 -3 -20.001 -5
s-16 -3.33301 -22 -4c-18 -2 -33.333 -3 -46 -3c-41.333 0 -75.166 9 -101.499 27s-48.833 44 -67.5 78c-38.667 -71.333 -97 -107 -175 -107s-132 18.333 -162 55s-45 103.667 -45 201c0 46.667 6.33301 87.334 19 122.001s29.667 61 51 79c41.333 36 88 54 140 54
s91.667 -7.16699 119 -21.5s47.666 -38.166 60.999 -71.499c19.333 33.333 44 57.333 74 72s60.667 22 92 22c119.333 -0.666992 179 -60.667 179 -180zM328.999 434.498c-18 6.33301 -41.5 9.50098 -70.5 9.50098s-53 -4.16699 -72 -12.5s-33 -22.333 -42 -42
s-14.833 -39.667 -17.5 -60s-4 -48.166 -4 -83.499c0 -75.333 8.5 -127.333 25.5 -156s54.5 -43 112.5 -43c59.333 0 98.333 15.667 117 47c10 17.333 16.667 36.166 20 56.499s5.33301 46.5 6 78.5v17c0 55.333 -3 94.333 -9 117s-14 38.667 -24 48s-24 17.166 -42 23.499z
M726.999 336.999c0 40 -10.001 68.001 -30.001 84.001s-49.667 24 -89 24s-71.666 -10.5 -96.999 -31.5s-38.333 -59.833 -39 -116.5h252c2 15.333 3 28.666 3 39.999z" />
    <glyph glyph-name="Scaron" unicode="&#x160;" horiz-adv-x="514" 
d="M65 75c51.333 -19.333 106.668 -29.002 166.001 -29.002s101.333 8.83301 126 26.5s37 50.5 37 98.5c0 25.333 -8 46.333 -24 63c-15.333 14.667 -29.333 25.334 -42 32.001l-36 18l-41.5 19l-42.5 19.5c-12 5.66699 -28.333 14 -49 25s-35.334 20.333 -44.001 28
s-18.334 17.167 -29.001 28.5c-18.667 20.667 -28 47.334 -28 80.001c0 55.333 19 98.5 57 129.5s87 46.5 147 46.5s115.667 -8.33301 167 -25l-13 -50c-41.333 13.333 -88.833 20 -142.5 20s-91.5 -8.5 -113.5 -25.5s-33 -46.167 -33 -87.5c0 -30.667 15.667 -56 47 -76
c25.333 -16 64.333 -35.5 117 -58.5s88.334 -40.833 107.001 -53.5c47.333 -32 71.333 -75.333 72 -130c0 -122 -79 -183 -237 -183c-66 0 -127.667 9.66699 -185 29zM155.002 858.998l106 -87l105 87l29 -30l-104 -106h-60l-104 106z" />
    <glyph glyph-name="scaron" unicode="&#x161;" horiz-adv-x="418" 
d="M59 68c41.333 -16 80.001 -23.998 116.001 -23.998s66.833 7.5 92.5 22.5s38.5 34.833 38.5 59.5s-8.66699 44.5 -26 59.5s-38.333 27.167 -63 36.5s-49.167 19.166 -73.5 29.499s-45.166 25 -62.499 44s-26 42.5 -26 70.5c0 44 15.333 77.833 46 101.5
s69.167 35.5 115.5 35.5s90.833 -7.66699 133.5 -23l-13 -46c-33.333 11.333 -71 17 -113 17c-69.333 0 -104 -27 -104 -81c0 -34.667 30 -63.334 90 -86.001c25.333 -9.33301 50.5 -19.5 75.5 -30.5s46.333 -26.833 64 -47.5s26.5 -45.667 26.5 -75
c0 -44.667 -19.333 -79 -58 -103s-83.334 -36 -134.001 -36s-97.334 9 -140.001 27zM100.001 703.002l106 -87l105 87l29 -30l-104 -106h-60l-104 106z" />
    <glyph glyph-name="Ydieresis" unicode="&#x178;" horiz-adv-x="538" 
d="M236 0v265l-206 383h74l165 -324l168 324h71l-205 -383l-1 -265h-66zM160 814h72v-74h-72v74zM306 814h72v-74h-72v74z" />
    <glyph glyph-name="Zcaron" unicode="&#x17d;" horiz-adv-x="522" 
d="M47 592v56h429v-56l-358 -536l358 2l-19 -58h-410v56l356 536h-356zM165 859l106 -87l105 87l29 -30l-104 -106h-60l-104 106z" />
    <glyph glyph-name="zcaron" unicode="&#x17e;" horiz-adv-x="461" 
d="M407 492v-54l-282 -367l-15 -15h314l-19 -56h-368v55l285 367l15 15h-279v55h349zM127 703l106 -87l105 87l29 -30l-104 -106h-60l-104 106z" />
    <glyph glyph-name="florin" unicode="&#x192;" horiz-adv-x="308" 
d="M-49 -202l8 46l13 1c48.667 4 84 23.333 106 58c10 16 15.333 35.333 16 58v477c0 3.33301 -4.33301 5 -13 5h-34l1 29c27.333 12.667 42.666 19.667 45.999 21v1l-1 78c4.66699 104.667 73.334 159 206.001 163l-8 -46l-13 -1c-48.667 -4 -84 -23.333 -106 -58
c-10 -16 -15.333 -35.333 -16 -58v-72c0 -5.33301 14.167 -8 42.5 -8s48.5 0.166992 60.5 0.5s19.667 0.5 23 0.5l-9 -49h-109c-5.33301 0 -8 -1.33301 -8 -4v-479c-4.66699 -104.667 -73 -159 -205 -163z" />
    <glyph glyph-name="circumflex" unicode="&#x2c6;" horiz-adv-x="378" 
d="M189 674l-106 -87l-28 30l104 106h60l104 -106l-29 -30z" />
    <glyph glyph-name="caron" unicode="&#x2c7;" horiz-adv-x="378" 
d="M83 703l106 -87l105 87l29 -30l-104 -106h-60l-104 106z" />
    <glyph glyph-name="breve" unicode="&#x2d8;" horiz-adv-x="332" 
d="M227 660h40c0 -26.667 -8.66699 -49.5 -26 -68.5s-42.666 -28.5 -75.999 -28.5s-58.333 9.33301 -75 28s-25 41.667 -25 69h40c0 -20 4.16699 -35.333 12.5 -46s24.166 -16 47.499 -16c41.333 0 62 20.667 62 62z" />
    <glyph glyph-name="dotaccent" unicode="&#x2d9;" horiz-adv-x="833" 
d="M81 657h70v-72h-70v72z" />
    <glyph glyph-name="ring" unicode="&#x2da;" horiz-adv-x="334" 
d="M259 670c0 -26.667 -8.50195 -49.667 -25.502 -69s-41.167 -29 -72.5 -29s-55.166 9.33301 -71.499 28s-24.5 41.5 -24.5 68.5s8.33301 49.833 25 68.5s40.834 28 72.501 28s55.667 -9.16699 72 -27.5s24.5 -40.833 24.5 -67.5zM204.998 625.5
c10 13 15.001 27.6689 15.001 44.002s-4.83301 30.666 -14.5 42.999s-24 18.5 -43 18.5s-33.5 -6.16699 -43.5 -18.5s-15 -26.833 -15 -43.5s4.66699 -31.334 14 -44.001s23.666 -19 42.999 -19s34 6.5 44 19.5z" />
    <glyph glyph-name="ogonek" unicode="&#x2db;" horiz-adv-x="339" 
d="M110 -5h60v-59l29 -114h-44l-3 4l-42 110v59z" />
    <glyph glyph-name="tilde" unicode="&#x2dc;" horiz-adv-x="833" 
d="M298 596c-12.667 -10 -22 -15.5 -28 -16.5s-11.833 -1.5 -17.5 -1.5s-14.5 1.66699 -26.5 5l-85 20l-75 -32l-18 28l42 35c14 12 23.5 18.5 28.5 19.5s10 1.5 15 1.5s13.167 -1.33301 24.5 -4l95 -22l74 35l18 -29z" />
    <glyph glyph-name="hungarumlaut" unicode="&#x2dd;" horiz-adv-x="465" 
d="M109 553l-35.002 20.999c0.666992 1.33301 5.33398 6.66602 14.001 15.999s14.5 15.833 17.5 19.5l16.5 21c8 10.333 14.667 19.5 20 27.5c10.667 14.667 24.334 37.334 41.001 68.001l58 -31c-21.333 -33.333 -46 -65.666 -74 -96.999zM258.998 552.999l-35.002 20.999
c0.666992 1.33301 5.33398 6.66602 14.001 15.999s14.5 15.833 17.5 19.5l16.5 21c8 10.333 14.667 19.5 20 27.5c10.667 14.667 24.334 37.334 41.001 68.001l58 -31c-21.333 -33.333 -46 -65.666 -74 -96.999z" />
    <glyph glyph-name="endash" unicode="&#x2013;" horiz-adv-x="561" 
d="M66 270v59h429v-59h-429z" />
    <glyph glyph-name="emdash" unicode="&#x2014;" horiz-adv-x="868" 
d="M76 270v59h716v-59h-716z" />
    <glyph glyph-name="quoteleft" unicode="&#x2018;" horiz-adv-x="211" 
d="M124 447l-60 -0.00195312v54c0.666992 36 2.5 61.333 5.5 76s8.16699 26.834 15.5 36.501s18 20.334 32 32.001s22.333 18.834 25 21.501l26 -23c-18 -22.667 -31.667 -44.334 -41 -65.001l-3 -76v-56z" />
    <glyph glyph-name="quoteright" unicode="&#x2019;" horiz-adv-x="208" 
d="M91 667h60v-54c0 -29.333 -0.166992 -49.833 -0.5 -61.5s-4.5 -24.5 -12.5 -38.5s-14.667 -23.333 -20 -28l-45 -38l-26 23c19.333 25.333 33 47 41 65l3 77v55z" />
    <glyph glyph-name="quotesinglbase" unicode="&#x201a;" horiz-adv-x="214" 
d="M69 92h75l1 -91l-53 -127h-49l26 127v91z" />
    <glyph glyph-name="quotedblleft" unicode="&#x201c;" horiz-adv-x="334" 
d="M247 447l-61 0.00195312v54c0.666992 52 4.5 84.667 11.5 98s25.167 32.666 54.5 57.999l12 10l27 -23c-17.333 -22.667 -31.333 -44.334 -42 -65.001l-2 -76v-56zM124 447.002l-60 -0.00195312v54c0.666992 36 2.5 61.333 5.5 76s8.16699 26.834 15.5 36.501
s18 20.334 32 32.001s22.333 18.834 25 21.501l26 -23c-18 -22.667 -31.667 -44.334 -41 -65.001l-3 -76v-56z" />
    <glyph glyph-name="quotedblright" unicode="&#x201d;" horiz-adv-x="330" 
d="M91 667h60v-54c0 -29.333 -0.166992 -49.833 -0.5 -61.5s-4.5 -24.5 -12.5 -38.5s-14.667 -23.333 -20 -28l-45 -38l-26 23c19.333 25.333 33 47 41 65l3 77v55zM213 667h61l-1 -54c0 -49.333 -3 -81 -9 -95s-24.667 -34.333 -56 -61
c-5.33301 -4 -9.33301 -7.33301 -12 -10l-27 23c19.333 25.333 33.333 47 42 65l2 77v55z" />
    <glyph glyph-name="quotedblbase" unicode="&#x201e;" horiz-adv-x="384" 
d="M69 92h75l1 -91l-53 -127h-49l26 127v91zM239 92h75l1 -91l-53 -127h-49l26 127v91z" />
    <glyph glyph-name="dagger" unicode="&#x2020;" horiz-adv-x="459" 
d="M39 433v59h158v190h64l-1 -190h160v-59h-160v-477h-63v477h-158z" />
    <glyph glyph-name="daggerdbl" unicode="&#x2021;" horiz-adv-x="442" 
d="M55 384v59h133v239h64l-1 -239h135v-59h-135v-141h135v-59h-135v-228h-63v228h-133v59h133v141h-133z" />
    <glyph glyph-name="bullet" unicode="&#x2022;" horiz-adv-x="356" 
d="M113 421c18.667 16 42.333 24 71 24s50.167 -7.66699 64.5 -23s21.5 -40.833 21.5 -76.5s-9 -61 -27 -76s-40.5 -22.5 -67.5 -22.5s-48.833 7 -65.5 21s-25 39 -25 75s9.33301 62 28 78z" />
    <glyph glyph-name="ellipsis" unicode="&#x2026;" horiz-adv-x="603" 
d="M154 90v-90h-85v90h85zM534 90v-90h-85v90h85zM344 90v-90h-85v90h85z" />
    <glyph glyph-name="perthousand" unicode="&#x2030;" horiz-adv-x="1024" 
d="M196 -9h-65l374 705h64zM173 647c-32.667 0 -53.332 -6.33203 -61.999 -18.999s-13 -41 -13 -85s4.83301 -74.5 14.5 -91.5s30.667 -25.5 63 -25.5s52.666 6.66699 60.999 20s12.5 41.666 12.5 84.999s-4.5 73.5 -13.5 90.5s-29.833 25.5 -62.5 25.5zM173.002 696.001
c53.333 0 88 -11.332 104 -33.999s24 -61.5 24 -116.5s-11 -96.833 -33 -125.5s-56 -43 -102 -43s-77.5 11.667 -94.5 35s-25.5 62.166 -25.5 116.499s11.333 95.833 34 124.5s53.667 43 93 43zM533.002 259.002c-32.667 0 -53.332 -6.33203 -61.999 -18.999
s-13 -41 -13 -85s4.83301 -74.5 14.5 -91.5s30.667 -25.5 63 -25.5s52.666 6.66699 60.999 20s12.5 41.666 12.5 84.999s-4.5 73.5 -13.5 90.5s-29.833 25.5 -62.5 25.5zM533.004 308.003c53.333 0 88 -11.332 104 -33.999s24 -61.5 24 -116.5s-11 -96.833 -33 -125.5
s-56 -43 -102 -43s-77.5 11.667 -94.5 35s-25.5 62.166 -25.5 116.499s11.333 95.833 34 124.5s53.667 43 93 43zM853.004 259.004c-32.667 0 -53.332 -6.33203 -61.999 -18.999s-13 -41 -13 -85s4.83301 -74.5 14.5 -91.5s30.667 -25.5 63 -25.5s52.666 6.66699 60.999 20
s12.5 41.666 12.5 84.999s-4.5 73.5 -13.5 90.5s-29.833 25.5 -62.5 25.5zM853.006 308.005c53.333 0 88 -11.332 104 -33.999s24 -61.5 24 -116.5s-11 -96.833 -33 -125.5s-56 -43 -102 -43s-77.5 11.667 -94.5 35s-25.5 62.166 -25.5 116.499s11.333 95.833 34 124.5
s53.667 43 93 43z" />
    <glyph glyph-name="guilsinglleft" unicode="&#x2039;" horiz-adv-x="306" 
d="M137 301c-14 -14 -21 -25 -21 -33s7 -20.333 21 -37l112 -120l-43 -40l-163 177v38l162 176l45 -38z" />
    <glyph glyph-name="guilsinglright" unicode="&#x203a;" horiz-adv-x="306" 
d="M169 231c14 16.667 21 29 21 37s-7 19 -21 33l-113 123l45 38l162 -176v-38l-163 -177l-43 40z" />
    <glyph glyph-name="fraction" unicode="&#x2044;" horiz-adv-x="369" 
d="M23 -7l269 758l54 -19l-268 -758z" />
    <glyph glyph-name="Euro" unicode="&#x20ac;" horiz-adv-x="635" 
d="M55 302l339.999 -0.000976562v-50h-196c9.33301 -79.333 32.666 -133.333 69.999 -162c32 -24 71.333 -36 118 -36c22.667 0 40.334 0.666992 53.001 2c38 2.66699 76 15.334 114 38.001l23 -54c-48 -32.667 -110.667 -49 -188 -49c-26.667 0 -50.167 1.5 -70.5 4.5
s-42.166 9.83301 -65.499 20.5s-43 25 -59 43c-36.667 42 -58.667 106.333 -66 193h-73v50zM394.999 373.999h-339.999v50h78c28 157.333 124 236 288 236c48.667 0 100.667 -9 156 -27l-16 -53c-60 12 -103.333 18 -130 18s-49 -1 -67 -3s-36.833 -6.5 -56.5 -13.5
s-35.834 -16.833 -48.501 -29.5c-29.333 -28 -48.333 -70.667 -57 -128h193v-50z" />
    <glyph glyph-name="trademark" unicode="&#x2122;" horiz-adv-x="764" 
d="M414 657l110 -221l110 221h44l11 -356h-37l-3 268l-1 40l-106 -209h-36l-106 209l-1 -40l-3 -268h-37l12 356h43zM62 626v31h236v-31h-100v-325h-36v325h-100z" />
    <glyph glyph-name="minus" unicode="&#x2212;" horiz-adv-x="533" 
d="M76 285v59h381v-59h-381z" />
    <glyph glyph-name=".null" horiz-adv-x="0" 
 />
    <glyph glyph-name="nonmarkingreturn" horiz-adv-x="333" 
 />
    <glyph glyph-name="CR" horiz-adv-x="500" 
 />
    <glyph glyph-name="i.alt" horiz-adv-x="222" 
d="M74 123l1 370h65v-370l24 -123v-4h-49l-4 3zM142 658v-74h-72v74h72z" />
    </font>
</defs>
</svg>
